<svg width="109" height="16" viewBox="0 0 109 16" fill="none" xmlns="http://www.w3.org/2000/svg">
<path d="M15.8841 5.76721C15.8331 5.60939 15.7369 5.47005 15.6073 5.36656C15.4778 5.26307 15.3206 5.2 15.1554 5.18522L10.5588 4.76782L8.74126 0.51352C8.60719 0.20175 8.30198 0 7.96287 0C7.62376 0 7.31852 0.201781 7.18452 0.514298L5.3669 4.76785L0.769605 5.18522C0.604626 5.20033 0.447711 5.26354 0.318313 5.36699C0.188916 5.47044 0.0927277 5.6096 0.0416742 5.76721C-0.0631824 6.08971 0.0336489 6.44341 0.289181 6.66637L3.76366 9.71347L2.73911 14.2266C2.66415 14.5584 2.79292 14.9014 3.06827 15.1004C3.21624 15.2074 3.3894 15.2618 3.564 15.2618C3.71455 15.2618 3.86385 15.2212 3.99792 15.141L7.96287 12.7713L11.9264 15.141C12.2164 15.3155 12.582 15.2996 12.8568 15.1004C12.9913 15.0031 13.0942 14.8683 13.1527 14.713C13.2112 14.5576 13.2228 14.3884 13.1859 14.2266L12.1614 9.71347L15.6358 6.66699C15.7608 6.55783 15.851 6.41436 15.8951 6.25439C15.9393 6.09442 15.9354 5.92501 15.8841 5.76721Z" fill="#B2B2B2"/>
<path d="M38.9519 5.76721C38.901 5.60939 38.8048 5.47005 38.6752 5.36656C38.5456 5.26307 38.3885 5.2 38.2233 5.18522L33.6267 4.76782L31.8091 0.51352C31.6751 0.20175 31.3699 0 31.0307 0C30.6916 0 30.3864 0.201781 30.2524 0.514298L28.4348 4.76785L23.8375 5.18522C23.6725 5.20033 23.5156 5.26354 23.3862 5.36699C23.2568 5.47044 23.1606 5.6096 23.1095 5.76721C23.0047 6.08971 23.1015 6.44341 23.3571 6.66637L26.8315 9.71347L25.807 14.2266C25.732 14.5584 25.8608 14.9014 26.1361 15.1004C26.2841 15.2074 26.4573 15.2618 26.6319 15.2618C26.7824 15.2618 26.9317 15.2212 27.0658 15.141L31.0307 12.7713L34.9943 15.141C35.2843 15.3155 35.6499 15.2996 35.9246 15.1004C36.0591 15.0031 36.162 14.8683 36.2206 14.713C36.2791 14.5576 36.2906 14.3884 36.2538 14.2266L35.2293 9.71347L38.7037 6.66699C38.8287 6.55783 38.9189 6.41436 38.963 6.25439C39.0071 6.09442 39.0033 5.92501 38.9519 5.76721Z" fill="#B2B2B2"/>
<path d="M62.0196 5.76721C61.9686 5.60939 61.8724 5.47005 61.7428 5.36656C61.6133 5.26307 61.4561 5.2 61.2909 5.18522L56.6943 4.76782L54.8768 0.51352C54.7427 0.20175 54.4375 0 54.0984 0C53.7593 0 53.454 0.201781 53.32 0.514298L51.5024 4.76785L46.9051 5.18522C46.7401 5.20033 46.5832 5.26354 46.4538 5.36699C46.3244 5.47044 46.2282 5.6096 46.1772 5.76721C46.0723 6.08971 46.1691 6.44341 46.4247 6.66637L49.8992 9.71347L48.8746 14.2266C48.7996 14.5584 48.9284 14.9014 49.2038 15.1004C49.3517 15.2074 49.5249 15.2618 49.6995 15.2618C49.85 15.2618 49.9994 15.2212 50.1334 15.141L54.0984 12.7713L58.0619 15.141C58.3519 15.3155 58.7175 15.2996 58.9923 15.1004C59.1268 15.0031 59.2297 14.8683 59.2882 14.713C59.3467 14.5576 59.3583 14.3884 59.3214 14.2266L58.2969 9.71347L61.7713 6.66699C61.8963 6.55783 61.9865 6.41436 62.0306 6.25439C62.0748 6.09442 62.0709 5.92501 62.0196 5.76721Z" fill="#B2B2B2"/>
<path d="M85.0872 5.76721C85.0363 5.60939 84.94 5.47005 84.8105 5.36656C84.6809 5.26307 84.5237 5.2 84.3585 5.18522L79.762 4.76782L77.9444 0.51352C77.8103 0.20175 77.5051 0 77.166 0C76.8269 0 76.5216 0.201781 76.3876 0.514298L74.57 4.76785L69.9727 5.18522C69.8078 5.20033 69.6508 5.26354 69.5214 5.36699C69.392 5.47044 69.2959 5.6096 69.2448 5.76721C69.1399 6.08971 69.2368 6.44341 69.4923 6.66637L72.9668 9.71347L71.9422 14.2266C71.8673 14.5584 71.996 14.9014 72.2714 15.1004C72.4194 15.2074 72.5925 15.2618 72.7671 15.2618C72.9177 15.2618 73.067 15.2212 73.201 15.141L77.166 12.7713L81.1295 15.141C81.4195 15.3155 81.7852 15.2996 82.0599 15.1004C82.1944 15.0031 82.2973 14.8683 82.3558 14.713C82.4143 14.5576 82.4259 14.3884 82.389 14.2266L81.3645 9.71347L84.839 6.66699C84.964 6.55783 85.0541 6.41436 85.0982 6.25439C85.1424 6.09442 85.1385 5.92501 85.0872 5.76721Z" fill="#B2B2B2"/>
<path d="M108.155 5.76721C108.104 5.60939 108.008 5.47005 107.878 5.36656C107.749 5.26307 107.592 5.2 107.426 5.18522L102.83 4.76782L101.012 0.51352C100.878 0.20175 100.573 0 100.234 0C99.8948 0 99.5895 0.201781 99.4555 0.514298L97.6379 4.76785L93.0406 5.18522C92.8756 5.20033 92.7187 5.26354 92.5893 5.36699C92.4599 5.47044 92.3637 5.6096 92.3127 5.76721C92.2078 6.08971 92.3046 6.44341 92.5602 6.66637L96.0347 9.71347L95.0101 14.2266C94.9351 14.5584 95.0639 14.9014 95.3393 15.1004C95.4872 15.2074 95.6604 15.2618 95.835 15.2618C95.9855 15.2618 96.1349 15.2212 96.2689 15.141L100.234 12.7713L104.197 15.141C104.487 15.3155 104.853 15.2996 105.128 15.1004C105.262 15.0031 105.365 14.8683 105.424 14.713C105.482 14.5576 105.494 14.3884 105.457 14.2266L104.432 9.71347L107.907 6.66699C108.032 6.55783 108.122 6.41436 108.166 6.25439C108.21 6.09442 108.206 5.92501 108.155 5.76721Z" fill="#B2B2B2"/>
</svg>
