<svg width="337" height="72" viewBox="0 0 337 72" fill="none" xmlns="http://www.w3.org/2000/svg">
<g clip-path="url(#clip0_20_1102)">
<path d="M217.3 18.4H222.82L220.21 30.94H234.96L237.57 18.4H243.09L236.55 49.94H231.03L233.99 35.72H219.24L216.28 49.94H210.76L217.3 18.4Z" fill="#15203A"/>
<path d="M262.71 43.31C262.62 43.72 262.53 44.12 262.42 44.5C262.32 44.88 262.27 45.24 262.27 45.56C262.27 45.88 262.34 46.13 262.49 46.31C262.64 46.49 262.92 46.57 263.33 46.57C263.62 46.57 263.92 46.53 264.21 46.46C264.5 46.39 264.8 46.34 265.09 46.31L264.29 49.93C263.64 50.08 262.99 50.22 262.35 50.35C261.7 50.48 261.04 50.55 260.36 50.55C259.51 50.55 258.8 50.29 258.24 49.76C257.68 49.23 257.37 48.52 257.31 47.64C256.31 48.64 255.13 49.38 253.78 49.85C252.42 50.32 251.04 50.56 249.63 50.56C248.69 50.56 247.79 50.43 246.94 50.16C246.09 49.9 245.33 49.51 244.67 49.01C244.01 48.51 243.48 47.88 243.1 47.11C242.72 46.34 242.53 45.46 242.53 44.46C242.53 43.05 242.79 41.86 243.32 40.9C243.85 39.94 244.56 39.16 245.44 38.54C246.32 37.92 247.34 37.47 248.49 37.17C249.64 36.88 250.85 36.68 252.11 36.6C253.82 36.48 255.5 36.35 257.15 36.2C258.06 36.14 258.73 35.84 259.16 35.29C259.59 34.74 259.8 34.05 259.8 33.19C259.8 32.1 259.42 31.37 258.65 31C257.88 30.63 256.99 30.45 255.96 30.45C254.55 30.45 253.33 30.69 252.32 31.18C251.3 31.67 250.62 32.62 250.27 34.03H245.5C245.77 32.62 246.22 31.43 246.87 30.47C247.52 29.51 248.31 28.73 249.26 28.13C250.21 27.53 251.27 27.1 252.46 26.85C253.65 26.6 254.93 26.47 256.28 26.47C258.34 26.47 259.95 26.67 261.12 27.07C262.29 27.47 263.14 27.95 263.68 28.51C264.22 29.07 264.56 29.65 264.67 30.26C264.79 30.86 264.85 31.37 264.85 31.78C264.85 32.78 264.7 33.93 264.41 35.23L262.73 43.31H262.71ZM247.56 43.67C247.56 44.23 247.68 44.69 247.94 45.06C248.19 45.43 248.51 45.72 248.89 45.94C249.27 46.16 249.7 46.32 250.17 46.43C250.64 46.53 251.11 46.58 251.58 46.58C252.82 46.58 253.85 46.37 254.69 45.96C255.53 45.55 256.22 44.99 256.77 44.28C257.31 43.57 257.74 42.74 258.05 41.78C258.36 40.82 258.6 39.8 258.78 38.71L258.69 38.62C258.34 38.97 257.87 39.22 257.28 39.37C256.69 39.52 256.12 39.62 255.56 39.68C254.85 39.74 254.04 39.8 253.11 39.86C252.18 39.92 251.31 40.07 250.5 40.32C249.69 40.57 249 40.95 248.42 41.47C247.85 41.99 247.56 42.72 247.56 43.66V43.67Z" fill="#15203A"/>
<path d="M268.98 27.1H274.19L276.09 43.75H276.18L285.01 27.1H290.31L277.68 49.94H272.07L268.98 27.1Z" fill="#15203A"/>
<path d="M310.99 42.87C310.19 45.55 308.85 47.5 306.97 48.72C305.09 49.94 302.76 50.55 299.99 50.55C298.55 50.55 297.21 50.32 295.99 49.87C294.77 49.41 293.72 48.75 292.83 47.88C291.95 47.01 291.25 45.97 290.75 44.74C290.25 43.52 290 42.13 290 40.57C290 38.8 290.28 37.08 290.84 35.4C291.4 33.72 292.22 32.22 293.29 30.9C294.36 29.57 295.69 28.51 297.27 27.7C298.84 26.89 300.65 26.49 302.68 26.49C304.71 26.49 306.36 26.83 307.63 27.51C308.9 28.19 309.88 29.04 310.59 30.07C311.3 31.1 311.77 32.24 312.03 33.47C312.28 34.71 312.41 35.89 312.41 37C312.41 37.56 312.38 38.08 312.32 38.55C312.26 39.02 312.2 39.45 312.14 39.83H295.13C295.1 39.98 295.08 40.11 295.06 40.23C295.05 40.35 295.04 40.47 295.04 40.58V41.29C295.04 42.88 295.46 44.16 296.3 45.13C297.14 46.1 298.53 46.59 300.47 46.59C301.82 46.59 302.99 46.28 303.96 45.66C304.93 45.04 305.59 44.11 305.95 42.88H310.99V42.87ZM307.32 36.51C307.35 36.36 307.36 36.24 307.36 36.13V35.09C307.36 33.74 306.93 32.62 306.08 31.76C305.23 30.89 304.05 30.46 302.55 30.46C300.67 30.46 299.16 31.03 298.04 32.16C296.92 33.29 296.11 34.74 295.61 36.51H307.32Z" fill="#15203A"/>
<path d="M318.32 27.1H323.05L322.34 30.41L322.43 30.5C323.34 29.23 324.48 28.25 325.85 27.54C327.22 26.83 328.7 26.48 330.29 26.48C332.59 26.48 334.27 27.02 335.35 28.11C336.42 29.2 336.96 30.67 336.96 32.53C336.96 32.94 336.94 33.41 336.92 33.94C336.89 34.47 336.83 34.94 336.74 35.35L333.69 49.93H328.65L331.57 35.84C331.66 35.46 331.74 35.09 331.81 34.74C331.88 34.39 331.92 34.05 331.92 33.72C331.92 33.54 331.92 33.27 331.9 32.9C331.88 32.53 331.78 32.16 331.57 31.8C331.36 31.44 331.02 31.12 330.53 30.85C330.04 30.59 329.34 30.45 328.43 30.45C327.43 30.45 326.54 30.66 325.76 31.09C324.98 31.52 324.28 32.04 323.66 32.66C323.07 33.25 322.56 33.98 322.14 34.85C321.71 35.72 321.4 36.62 321.19 37.57L318.63 49.94H313.59L318.32 27.1Z" fill="#15203A"/>
<path d="M31.69 61.68C22.4 61.02 9.86 60.43 0.23 59.94C8.56 60.96 22.59 62.77 31.69 63.96V61.69V61.68Z" fill="#15203A"/>
<path d="M31.69 51.75L0 51.15V56.74L31.69 58.55V51.75Z" fill="#31B4C9"/>
<path d="M35.83 51.84V58.82L42.83 59.27V51.98L35.83 51.84Z" fill="#31B4C9"/>
<path d="M31.69 41.16L0 42.45V48.83L31.69 48.29V41.16Z" fill="#31B4C9"/>
<path d="M35.83 40.97V48.22L42.83 48.08V40.65L35.83 40.97Z" fill="#31B4C9"/>
<path d="M31.69 30.89L0 33.65V40.03L31.69 38.01V30.89Z" fill="#31B4C9"/>
<path d="M35.83 30.49V37.72L42.83 37.22V29.81L35.83 30.49Z" fill="#31B4C9"/>
<path d="M35.83 20.13V27.53L42.83 26.72V19.07L35.83 20.13Z" fill="#31B4C9"/>
<path d="M31.69 20.76L0 25.05V31.28L31.69 28.01V20.76Z" fill="#31B4C9"/>
<path d="M31.69 10.58L0 16.63V22.58L31.69 17.53V10.58Z" fill="#31B4C9"/>
<path d="M35.83 9.69V16.79L42.83 15.54V8.2L35.83 9.69Z" fill="#31B4C9"/>
<path d="M35.94 69.45H34V9.96L35.94 9.65V69.45Z" fill="#31B4C9"/>
<path d="M34.97 71.43C36.2347 71.43 37.26 70.4047 37.26 69.14C37.26 67.8753 36.2347 66.85 34.97 66.85C33.7053 66.85 32.68 67.8753 32.68 69.14C32.68 70.4047 33.7053 71.43 34.97 71.43Z" fill="#31B4C9"/>
<path d="M58.15 9.65H190.41C198.44 9.65 204.96 16.17 204.96 24.2V60.25H72.6C64.63 60.25 58.15 53.78 58.15 45.8V9.65Z" fill="#31B4C9"/>
<path d="M72.43 42.01C72.75 42.76 73.22 43.36 73.84 43.8C74.46 44.24 75.19 44.56 76.05 44.75C76.91 44.94 77.83 45.04 78.83 45.04C79.54 45.04 80.24 44.95 80.95 44.77C81.66 44.59 82.3 44.33 82.87 43.98C83.44 43.63 83.91 43.17 84.28 42.61C84.65 42.05 84.83 41.37 84.83 40.58C84.83 39.79 84.59 39.19 84.12 38.7C83.65 38.21 83.04 37.79 82.29 37.44C81.54 37.09 80.69 36.78 79.73 36.51C78.77 36.25 77.81 35.97 76.84 35.67C75.84 35.38 74.87 35.02 73.92 34.61C72.98 34.2 72.13 33.67 71.38 33.02C70.63 32.37 70.02 31.58 69.57 30.64C69.11 29.7 68.89 28.55 68.89 27.19C68.89 25.42 69.26 23.92 69.99 22.68C70.73 21.44 71.68 20.43 72.86 19.65C74.04 18.87 75.37 18.3 76.86 17.93C78.35 17.56 79.86 17.38 81.39 17.38C83.01 17.38 84.53 17.56 85.96 17.93C87.39 18.3 88.64 18.89 89.71 19.72C90.78 20.55 91.64 21.6 92.27 22.88C92.9 24.16 93.22 25.71 93.22 27.54H86.64C86.67 26.66 86.54 25.91 86.26 25.31C85.98 24.71 85.58 24.21 85.07 23.83C84.55 23.45 83.94 23.17 83.24 23.01C82.53 22.85 81.78 22.77 80.99 22.77C80.34 22.77 79.69 22.84 79.02 22.97C78.36 23.1 77.76 23.32 77.23 23.63C76.7 23.94 76.27 24.34 75.95 24.84C75.63 25.34 75.46 25.96 75.46 26.7C75.46 27.44 75.75 28.11 76.32 28.62C76.89 29.13 77.59 29.56 78.4 29.9C79.21 30.24 80.04 30.5 80.9 30.69C81.75 30.88 82.45 31.04 82.98 31.15C84.22 31.48 85.35 31.85 86.38 32.28C87.41 32.71 88.3 33.26 89.05 33.94C89.8 34.62 90.38 35.44 90.79 36.41C91.2 37.38 91.41 38.57 91.41 39.99C91.41 41.88 91.02 43.48 90.24 44.81C89.46 46.14 88.46 47.21 87.24 48.03C86.02 48.86 84.64 49.45 83.11 49.82C81.58 50.19 80.06 50.37 78.56 50.37C74.14 50.37 70.85 49.47 68.69 47.68C66.52 45.88 65.44 43.06 65.44 39.2H72.02C71.96 40.32 72.09 41.25 72.42 42L72.43 42.01Z" fill="white"/>
<path d="M106.17 18.14L103.83 29.49H103.92C104.16 29.17 104.49 28.81 104.94 28.43C105.38 28.05 105.91 27.69 106.53 27.37C107.15 27.05 107.87 26.77 108.69 26.55C109.51 26.33 110.44 26.22 111.47 26.22C115.92 26.22 118.14 28.27 118.14 32.36C118.14 32.6 118.11 32.9 118.05 33.27C117.99 33.64 117.93 34.01 117.85 34.4C117.78 34.78 117.7 35.14 117.63 35.48C117.56 35.82 117.51 36.09 117.48 36.3L114.65 49.68H108.38L111.16 36.3C111.22 35.95 111.3 35.48 111.4 34.89C111.5 34.3 111.55 33.85 111.55 33.52C111.55 32.84 111.23 32.28 110.6 31.84C109.97 31.4 109.28 31.18 108.55 31.18C107.61 31.18 106.78 31.36 106.05 31.73C105.32 32.1 104.71 32.58 104.19 33.17C103.68 33.76 103.25 34.44 102.91 35.2C102.57 35.97 102.31 36.75 102.14 37.54L99.58 49.69H93.35L99.89 18.15H106.16L106.17 18.14Z" fill="white"/>
<path d="M124.81 30.17C125.49 29.21 126.31 28.44 127.28 27.85C128.25 27.26 129.34 26.84 130.55 26.59C131.76 26.34 133.01 26.21 134.3 26.21C135.33 26.21 136.41 26.28 137.52 26.43C138.63 26.58 139.67 26.86 140.61 27.29C141.55 27.72 142.32 28.32 142.93 29.1C143.53 29.88 143.82 30.92 143.79 32.21C143.79 33.3 143.63 34.58 143.3 36.05L141.27 45.24C141.15 45.65 141.07 46.16 141.03 46.76C140.99 47.36 140.96 47.89 140.96 48.33C140.96 48.71 141.03 49.16 141.18 49.66H134.91V47.41C134.06 48.38 133.01 49.1 131.77 49.55C130.53 50.01 129.25 50.23 127.93 50.23C126.69 50.23 125.61 50.07 124.68 49.74C123.75 49.42 122.98 48.98 122.36 48.44C121.74 47.9 121.28 47.26 120.99 46.54C120.7 45.82 120.55 45.06 120.55 44.27C120.55 42.06 121.31 40.29 122.82 38.97C124.33 37.65 126.48 36.82 129.25 36.5C130.72 36.32 132 36.19 133.09 36.1C134.18 36.01 135.08 35.87 135.81 35.68C136.53 35.49 137.07 35.21 137.42 34.84C137.77 34.47 137.95 33.92 137.95 33.18C137.95 32.59 137.82 32.12 137.55 31.77C137.29 31.42 136.95 31.14 136.56 30.93C136.16 30.72 135.73 30.58 135.28 30.51C134.82 30.44 134.39 30.4 133.98 30.4C132.86 30.4 131.86 30.67 130.98 31.22C130.1 31.77 129.55 32.61 129.35 33.76H123.48C123.69 32.32 124.13 31.12 124.81 30.16V30.17ZM134.18 39.58C133.27 39.68 132.35 39.76 131.44 39.82C130.85 39.88 130.28 39.97 129.72 40.11C129.16 40.24 128.67 40.44 128.24 40.71C127.81 40.98 127.47 41.34 127.2 41.79C126.94 42.25 126.8 42.83 126.8 43.54C126.8 44.39 127.15 45.04 127.84 45.46C128.53 45.89 129.33 46.1 130.25 46.1C131.22 46.1 132.04 45.95 132.7 45.64C133.36 45.33 133.92 44.93 134.38 44.45C134.84 43.96 135.2 43.41 135.46 42.79C135.73 42.17 135.95 41.55 136.12 40.93L136.74 38.72C135.95 39.19 135.09 39.48 134.18 39.58Z" fill="white"/>
<path d="M162.18 46.76C161.47 48 160.51 48.89 159.29 49.43C158.07 49.97 156.75 50.25 155.34 50.25C152.57 50.25 150.43 49.45 148.91 47.84C147.39 46.24 146.63 44.05 146.63 41.28C146.63 39.4 146.88 37.56 147.38 35.76C147.88 33.96 148.65 32.36 149.68 30.95C150.71 29.54 152.01 28.4 153.57 27.53C155.13 26.66 156.97 26.23 159.09 26.23C160.42 26.23 161.69 26.52 162.91 27.11C164.13 27.7 164.99 28.63 165.49 29.89H165.58L168.1 18.14H174.37L167.7 49.68H161.65L162.27 46.85L162.18 46.76ZM156.68 31.87C155.81 32.49 155.1 33.27 154.54 34.21C153.98 35.15 153.57 36.18 153.3 37.3C153.04 38.42 152.9 39.48 152.9 40.48C152.9 41.16 153 41.81 153.19 42.42C153.38 43.03 153.66 43.58 154.03 44.03C154.4 44.49 154.86 44.86 155.42 45.13C155.98 45.41 156.63 45.55 157.36 45.55C158.54 45.55 159.55 45.23 160.41 44.6C161.26 43.97 161.98 43.16 162.55 42.19C163.12 41.22 163.55 40.17 163.83 39.03C164.11 37.9 164.25 36.84 164.25 35.87C164.25 34.37 163.88 33.17 163.15 32.27C162.42 31.37 161.28 30.92 159.75 30.92C158.57 30.92 157.55 31.23 156.68 31.85V31.87Z" fill="white"/>
<path d="M179.63 40.18V41.11C179.63 42.44 180.04 43.51 180.87 44.33C181.69 45.16 182.96 45.57 184.67 45.57C185.29 45.57 185.84 45.47 186.33 45.28C186.82 45.09 187.24 44.85 187.61 44.55C187.98 44.26 188.3 43.92 188.58 43.53C188.86 43.15 189.12 42.78 189.35 42.43H195.62C195.12 43.73 194.53 44.86 193.85 45.83C193.17 46.8 192.36 47.62 191.42 48.28C190.48 48.94 189.38 49.44 188.13 49.76C186.88 50.08 185.43 50.25 183.78 50.25C182.25 50.25 180.86 50.04 179.61 49.63C178.36 49.22 177.29 48.59 176.41 47.75C175.53 46.91 174.84 45.87 174.36 44.64C173.87 43.4 173.63 41.96 173.63 40.31C173.63 38.48 173.92 36.73 174.51 35.03C175.1 33.34 175.93 31.84 177.01 30.53C178.09 29.22 179.4 28.17 180.96 27.39C182.52 26.61 184.27 26.22 186.22 26.22C187.81 26.22 189.26 26.43 190.57 26.84C191.88 27.25 193 27.88 193.93 28.72C194.86 29.56 195.58 30.6 196.09 31.86C196.6 33.11 196.86 34.56 196.86 36.21C196.86 37.33 196.74 38.52 196.51 39.79H179.68C179.65 39.94 179.64 40.07 179.64 40.19L179.63 40.18ZM190.65 34.06C190.55 33.49 190.35 32.96 190.05 32.49C189.76 32.02 189.33 31.64 188.77 31.36C188.21 31.08 187.47 30.94 186.56 30.94C185.65 30.94 184.9 31.07 184.22 31.34C183.54 31.61 182.95 31.96 182.45 32.4C181.95 32.84 181.53 33.36 181.19 33.95C180.85 34.54 180.56 35.16 180.33 35.81H190.8C190.8 35.22 190.75 34.64 190.65 34.06Z" fill="white"/>
<path d="M49.32 0C47.21 0.55 45.27 1.12 43.42 1.7L0.200001 14.06L45.98 4.28C45.87 13.33 45.81 24.04 45.81 32.7C45.81 41.43 45.9 53.67 46.01 62.72C42.56 62.47 40.92 62.22 37.57 61.98V64.46C37.95 64.5 37.32 64.55 37.7 64.59C43.28 65.18 43.72 65.78 49.31 66.3C49.36 60.4 49.48 54.49 49.49 48.6C49.57 33.02 49.56 15.5 49.33 0L49.32 0Z" fill="#15203A"/>
</g>
<defs>
<clipPath id="clip0_20_1102">
<rect width="336.96" height="71.43" fill="white"/>
</clipPath>
</defs>
</svg>
