<svg width="284" height="65" viewBox="0 0 284 65" fill="none" xmlns="http://www.w3.org/2000/svg">
<rect width="284" height="65" rx="32.5" fill="#31B4C9"/>
<path d="M82.9432 30.1477H81.1705C81.1023 29.7689 80.9754 29.4356 80.7898 29.1477C80.6042 28.8598 80.3769 28.6155 80.108 28.4148C79.839 28.214 79.5379 28.0625 79.2045 27.9602C78.875 27.858 78.5246 27.8068 78.1534 27.8068C77.483 27.8068 76.8826 27.9754 76.3523 28.3125C75.8258 28.6496 75.4091 29.1439 75.1023 29.7955C74.7992 30.447 74.6477 31.2424 74.6477 32.1818C74.6477 33.1288 74.7992 33.928 75.1023 34.5795C75.4091 35.2311 75.8277 35.7235 76.358 36.0568C76.8883 36.3902 77.4848 36.5568 78.1477 36.5568C78.5152 36.5568 78.8636 36.5076 79.1932 36.4091C79.5265 36.3068 79.8277 36.1572 80.0966 35.9602C80.3655 35.7633 80.5928 35.5227 80.7784 35.2386C80.9678 34.9508 81.0985 34.6212 81.1705 34.25L82.9432 34.2557C82.8485 34.8277 82.6648 35.3542 82.392 35.8352C82.1231 36.3125 81.7765 36.7254 81.3523 37.0739C80.9318 37.4186 80.4508 37.6856 79.9091 37.875C79.3674 38.0644 78.7765 38.1591 78.1364 38.1591C77.1288 38.1591 76.2311 37.9205 75.4432 37.4432C74.6553 36.9621 74.0341 36.2746 73.5795 35.3807C73.1288 34.4867 72.9034 33.4205 72.9034 32.1818C72.9034 30.9394 73.1307 29.8731 73.5852 28.983C74.0398 28.089 74.661 27.4034 75.4489 26.9261C76.2367 26.4451 77.1326 26.2045 78.1364 26.2045C78.7538 26.2045 79.3295 26.2936 79.8636 26.4716C80.4015 26.6458 80.8845 26.9034 81.3125 27.2443C81.7405 27.5814 82.0947 27.9943 82.375 28.483C82.6553 28.9678 82.8447 29.5227 82.9432 30.1477ZM87.5489 38H85.6852L89.8727 26.3636H91.9011L96.0886 38H94.225L90.9352 28.4773H90.8443L87.5489 38ZM87.8614 33.4432H93.9068V34.9205H87.8614V33.4432ZM99.369 38V26.3636H101.125V36.4886H106.397V38H99.369ZM110 38V26.3636H111.756V36.4886H117.029V38H110ZM121.614 36.5568C121.304 36.5568 121.037 36.447 120.813 36.2273C120.59 36.0038 120.478 35.7348 120.478 35.4205C120.478 35.1098 120.59 34.8447 120.813 34.625C121.037 34.4015 121.304 34.2898 121.614 34.2898C121.925 34.2898 122.192 34.4015 122.416 34.625C122.639 34.8447 122.751 35.1098 122.751 35.4205C122.751 35.6288 122.698 35.8201 122.592 35.9943C122.489 36.1648 122.353 36.3011 122.183 36.4034C122.012 36.5057 121.823 36.5568 121.614 36.5568ZM121.614 30.7273C121.304 30.7273 121.037 30.6174 120.813 30.3977C120.59 30.1742 120.478 29.9053 120.478 29.5909C120.478 29.2803 120.59 29.0152 120.813 28.7955C121.037 28.572 121.304 28.4602 121.614 28.4602C121.925 28.4602 122.192 28.572 122.416 28.7955C122.639 29.0152 122.751 29.2803 122.751 29.5909C122.751 29.7992 122.698 29.9905 122.592 30.1648C122.489 30.3352 122.353 30.4716 122.183 30.5739C122.012 30.6761 121.823 30.7273 121.614 30.7273ZM136.512 38.1591C135.709 38.1591 134.993 38.0114 134.364 37.7159C133.739 37.4205 133.243 37.0133 132.876 36.4943C132.508 35.9754 132.317 35.3807 132.302 34.7102H134.688C134.715 35.161 134.904 35.5265 135.256 35.8068C135.609 36.0871 136.027 36.2273 136.512 36.2273C136.898 36.2273 137.239 36.142 137.535 35.9716C137.834 35.7973 138.067 35.5568 138.234 35.25C138.404 34.9394 138.489 34.5833 138.489 34.1818C138.489 33.7727 138.402 33.4129 138.228 33.1023C138.057 32.7917 137.821 32.5492 137.518 32.375C137.215 32.2008 136.868 32.1117 136.478 32.108C136.137 32.108 135.805 32.178 135.484 32.3182C135.165 32.4583 134.917 32.6496 134.739 32.892L132.552 32.5L133.103 26.3636H140.216V28.375H135.131L134.83 31.2898H134.898C135.103 31.0019 135.412 30.7633 135.824 30.5739C136.237 30.3845 136.699 30.2898 137.211 30.2898C137.912 30.2898 138.537 30.4545 139.086 30.7841C139.635 31.1136 140.069 31.5663 140.387 32.142C140.705 32.714 140.862 33.3731 140.859 34.1193C140.862 34.9034 140.68 35.6004 140.313 36.2102C139.949 36.8163 139.44 37.2936 138.785 37.642C138.133 37.9867 137.376 38.1591 136.512 38.1591ZM148.64 38.1591C148.042 38.1553 147.464 38.0549 146.907 37.858C146.354 37.661 145.858 37.3409 145.419 36.8977C144.979 36.4545 144.631 35.8674 144.373 35.1364C144.12 34.4053 143.993 33.5076 143.993 32.4432C143.996 31.4659 144.108 30.5928 144.328 29.8239C144.551 29.0511 144.87 28.3958 145.282 27.858C145.699 27.3201 146.197 26.911 146.777 26.6307C147.356 26.3466 148.006 26.2045 148.726 26.2045C149.502 26.2045 150.188 26.3561 150.782 26.6591C151.377 26.9583 151.854 27.3655 152.214 27.8807C152.578 28.3958 152.798 28.9735 152.873 29.6136H150.447C150.352 29.2083 150.154 28.8902 149.851 28.6591C149.548 28.428 149.173 28.3125 148.726 28.3125C147.968 28.3125 147.392 28.642 146.998 29.3011C146.608 29.9602 146.409 30.8561 146.402 31.9886H146.481C146.655 31.6439 146.89 31.3504 147.186 31.108C147.485 30.8617 147.824 30.6742 148.203 30.5455C148.585 30.4129 148.989 30.3466 149.413 30.3466C150.102 30.3466 150.716 30.5095 151.254 30.8352C151.792 31.1572 152.216 31.6004 152.527 32.1648C152.837 32.7292 152.993 33.375 152.993 34.1023C152.993 34.8902 152.809 35.5909 152.441 36.2045C152.078 36.8182 151.568 37.2992 150.913 37.6477C150.262 37.9924 149.504 38.1629 148.64 38.1591ZM148.629 36.2273C149.008 36.2273 149.347 36.1364 149.646 35.9545C149.945 35.7727 150.18 35.5265 150.351 35.2159C150.521 34.9053 150.606 34.5568 150.606 34.1705C150.606 33.7841 150.521 33.4375 150.351 33.1307C150.184 32.8239 149.953 32.5795 149.657 32.3977C149.362 32.2159 149.025 32.125 148.646 32.125C148.362 32.125 148.099 32.178 147.856 32.2841C147.618 32.3902 147.407 32.5379 147.226 32.7273C147.048 32.9167 146.907 33.1364 146.805 33.3864C146.703 33.6326 146.652 33.8958 146.652 34.1761C146.652 34.5511 146.737 34.8939 146.907 35.2045C147.082 35.5152 147.316 35.7633 147.612 35.9489C147.911 36.1345 148.25 36.2273 148.629 36.2273ZM161.399 26.3636V38H158.939V28.6989H158.871L156.206 30.3693V28.1875L159.087 26.3636H161.399ZM171.225 31.2216V33.142H165.918V31.2216H171.225ZM179.115 38.1591C178.312 38.1591 177.596 38.0114 176.967 37.7159C176.342 37.4205 175.846 37.0133 175.479 36.4943C175.111 35.9754 174.92 35.3807 174.905 34.7102H177.291C177.318 35.161 177.507 35.5265 177.859 35.8068C178.212 36.0871 178.63 36.2273 179.115 36.2273C179.501 36.2273 179.842 36.142 180.138 35.9716C180.437 35.7973 180.67 35.5568 180.837 35.25C181.007 34.9394 181.092 34.5833 181.092 34.1818C181.092 33.7727 181.005 33.4129 180.831 33.1023C180.661 32.7917 180.424 32.5492 180.121 32.375C179.818 32.2008 179.471 32.1117 179.081 32.108C178.74 32.108 178.409 32.178 178.087 32.3182C177.768 32.4583 177.52 32.6496 177.342 32.892L175.155 32.5L175.706 26.3636H182.82V28.375H177.734L177.433 31.2898H177.501C177.706 31.0019 178.015 30.7633 178.428 30.5739C178.84 30.3845 179.303 30.2898 179.814 30.2898C180.515 30.2898 181.14 30.4545 181.689 30.7841C182.238 31.1136 182.672 31.5663 182.99 32.142C183.308 32.714 183.465 33.3731 183.462 34.1193C183.465 34.9034 183.284 35.6004 182.916 36.2102C182.553 36.8163 182.043 37.2936 181.388 37.642C180.736 37.9867 179.979 38.1591 179.115 38.1591ZM191.118 38.1591C190.243 38.1591 189.465 38.017 188.783 37.733C188.105 37.4451 187.573 37.053 187.187 36.5568C186.8 36.0606 186.607 35.4981 186.607 34.8693C186.607 34.3845 186.717 33.9394 186.937 33.5341C187.16 33.125 187.463 32.786 187.846 32.517C188.228 32.2443 188.656 32.0701 189.13 31.9943V31.9148C188.509 31.7898 188.005 31.4886 187.618 31.0114C187.232 30.5303 187.039 29.9716 187.039 29.3352C187.039 28.733 187.215 28.197 187.567 27.7273C187.92 27.2538 188.403 26.8826 189.016 26.6136C189.634 26.3409 190.334 26.2045 191.118 26.2045C191.903 26.2045 192.601 26.3409 193.215 26.6136C193.832 26.8864 194.317 27.2595 194.67 27.733C195.022 28.2027 195.2 28.7367 195.204 29.3352C195.2 29.9754 195.003 30.5341 194.613 31.0114C194.223 31.4886 193.723 31.7898 193.113 31.9148V31.9943C193.579 32.0701 194.001 32.2443 194.38 32.517C194.762 32.786 195.065 33.125 195.289 33.5341C195.516 33.9394 195.632 34.3845 195.636 34.8693C195.632 35.4981 195.437 36.0606 195.05 36.5568C194.664 37.053 194.13 37.4451 193.448 37.733C192.77 38.017 191.993 38.1591 191.118 38.1591ZM191.118 36.3523C191.509 36.3523 191.85 36.2822 192.141 36.142C192.433 35.9981 192.66 35.8011 192.823 35.5511C192.99 35.2973 193.073 35.0057 193.073 34.6761C193.073 34.339 192.988 34.0417 192.817 33.7841C192.647 33.5227 192.416 33.3182 192.124 33.1705C191.832 33.0189 191.497 32.9432 191.118 32.9432C190.743 32.9432 190.408 33.0189 190.113 33.1705C189.817 33.3182 189.584 33.5227 189.414 33.7841C189.247 34.0417 189.164 34.339 189.164 34.6761C189.164 35.0057 189.245 35.2973 189.408 35.5511C189.571 35.8011 189.8 35.9981 190.096 36.142C190.391 36.2822 190.732 36.3523 191.118 36.3523ZM191.118 31.1534C191.444 31.1534 191.734 31.0871 191.988 30.9545C192.242 30.822 192.44 30.6383 192.584 30.4034C192.728 30.1686 192.8 29.8977 192.8 29.5909C192.8 29.2879 192.728 29.0227 192.584 28.7955C192.44 28.5644 192.243 28.3845 191.993 28.2557C191.743 28.1231 191.452 28.0568 191.118 28.0568C190.789 28.0568 190.497 28.1231 190.243 28.2557C189.99 28.3845 189.791 28.5644 189.647 28.7955C189.507 29.0227 189.437 29.2879 189.437 29.5909C189.437 29.8977 189.509 30.1686 189.653 30.4034C189.796 30.6383 189.995 30.822 190.249 30.9545C190.503 31.0871 190.793 31.1534 191.118 31.1534ZM203.166 26.2045C203.764 26.2045 204.34 26.3049 204.893 26.5057C205.45 26.7064 205.946 27.0265 206.382 27.4659C206.821 27.9053 207.168 28.4886 207.422 29.2159C207.679 29.9394 207.81 30.8277 207.814 31.8807C207.814 32.8693 207.702 33.7519 207.478 34.5284C207.259 35.3011 206.942 35.9583 206.53 36.5C206.117 37.0417 205.619 37.4545 205.035 37.7386C204.452 38.0189 203.8 38.1591 203.081 38.1591C202.304 38.1591 201.619 38.0095 201.024 37.7102C200.429 37.4072 199.95 36.9962 199.586 36.4773C199.227 35.9545 199.009 35.3674 198.933 34.7159H201.359C201.454 35.1402 201.653 35.4697 201.956 35.7045C202.259 35.9356 202.634 36.0511 203.081 36.0511C203.838 36.0511 204.414 35.7216 204.808 35.0625C205.202 34.3996 205.401 33.4924 205.405 32.3409H205.325C205.151 32.6818 204.916 32.9754 204.62 33.2216C204.325 33.464 203.986 33.6515 203.603 33.7841C203.225 33.9167 202.821 33.983 202.393 33.983C201.708 33.983 201.096 33.822 200.558 33.5C200.02 33.178 199.596 32.7348 199.285 32.1705C198.975 31.6061 198.819 30.9621 198.819 30.2386C198.816 29.4583 198.995 28.7633 199.359 28.1534C199.723 27.5436 200.23 27.0663 200.882 26.7216C201.537 26.3731 202.298 26.2008 203.166 26.2045ZM203.183 28.1364C202.8 28.1364 202.459 28.2273 202.16 28.4091C201.865 28.5909 201.63 28.8352 201.456 29.142C201.285 29.4489 201.202 29.7917 201.206 30.1705C201.206 30.553 201.289 30.8977 201.456 31.2045C201.626 31.5076 201.857 31.75 202.149 31.9318C202.444 32.1098 202.781 32.1989 203.16 32.1989C203.444 32.1989 203.708 32.1458 203.95 32.0398C204.192 31.9337 204.403 31.7879 204.581 31.6023C204.762 31.4129 204.905 31.1951 205.007 30.9489C205.109 30.7027 205.16 30.4413 205.16 30.1648C205.156 29.7973 205.069 29.4602 204.899 29.1534C204.728 28.8466 204.494 28.6004 204.194 28.4148C203.895 28.2292 203.558 28.1364 203.183 28.1364ZM216.578 31.2216V33.142H211.272V31.2216H216.578ZM224.559 38.1591C223.684 38.1591 222.906 38.017 222.224 37.733C221.546 37.4451 221.014 37.053 220.627 36.5568C220.241 36.0606 220.048 35.4981 220.048 34.8693C220.048 34.3845 220.158 33.9394 220.377 33.5341C220.601 33.125 220.904 32.786 221.286 32.517C221.669 32.2443 222.097 32.0701 222.57 31.9943V31.9148C221.949 31.7898 221.445 31.4886 221.059 31.0114C220.673 30.5303 220.48 29.9716 220.48 29.3352C220.48 28.733 220.656 28.197 221.008 27.7273C221.36 27.2538 221.843 26.8826 222.457 26.6136C223.074 26.3409 223.775 26.2045 224.559 26.2045C225.343 26.2045 226.042 26.3409 226.656 26.6136C227.273 26.8864 227.758 27.2595 228.11 27.733C228.462 28.2027 228.641 28.7367 228.644 29.3352C228.641 29.9754 228.444 30.5341 228.053 31.0114C227.663 31.4886 227.163 31.7898 226.553 31.9148V31.9943C227.019 32.0701 227.442 32.2443 227.82 32.517C228.203 32.786 228.506 33.125 228.73 33.5341C228.957 33.9394 229.072 34.3845 229.076 34.8693C229.072 35.4981 228.877 36.0606 228.491 36.5568C228.105 37.053 227.57 37.4451 226.889 37.733C226.211 38.017 225.434 38.1591 224.559 38.1591ZM224.559 36.3523C224.949 36.3523 225.29 36.2822 225.582 36.142C225.873 35.9981 226.101 35.8011 226.264 35.5511C226.43 35.2973 226.514 35.0057 226.514 34.6761C226.514 34.339 226.428 34.0417 226.258 33.7841C226.087 33.5227 225.856 33.3182 225.565 33.1705C225.273 33.0189 224.938 32.9432 224.559 32.9432C224.184 32.9432 223.849 33.0189 223.553 33.1705C223.258 33.3182 223.025 33.5227 222.855 33.7841C222.688 34.0417 222.605 34.339 222.605 34.6761C222.605 35.0057 222.686 35.2973 222.849 35.5511C223.012 35.8011 223.241 35.9981 223.536 36.142C223.832 36.2822 224.173 36.3523 224.559 36.3523ZM224.559 31.1534C224.885 31.1534 225.175 31.0871 225.428 30.9545C225.682 30.822 225.881 30.6383 226.025 30.4034C226.169 30.1686 226.241 29.8977 226.241 29.5909C226.241 29.2879 226.169 29.0227 226.025 28.7955C225.881 28.5644 225.684 28.3845 225.434 28.2557C225.184 28.1231 224.892 28.0568 224.559 28.0568C224.23 28.0568 223.938 28.1231 223.684 28.2557C223.43 28.3845 223.231 28.5644 223.087 28.7955C222.947 29.0227 222.877 29.2879 222.877 29.5909C222.877 29.8977 222.949 30.1686 223.093 30.4034C223.237 30.6383 223.436 30.822 223.69 30.9545C223.944 31.0871 224.233 31.1534 224.559 31.1534ZM236.959 38.2557C235.982 38.2519 235.141 38.0114 234.436 37.5341C233.735 37.0568 233.196 36.3655 232.817 35.4602C232.442 34.5549 232.256 33.4659 232.26 32.1932C232.26 30.9242 232.447 29.8428 232.822 28.9489C233.201 28.0549 233.741 27.375 234.442 26.9091C235.146 26.4394 235.985 26.2045 236.959 26.2045C237.932 26.2045 238.769 26.4394 239.47 26.9091C240.175 27.3788 240.716 28.0606 241.095 28.9545C241.474 29.8447 241.661 30.9242 241.658 32.1932C241.658 33.4697 241.468 34.5606 241.089 35.4659C240.714 36.3712 240.177 37.0625 239.476 37.5398C238.775 38.017 237.936 38.2557 236.959 38.2557ZM236.959 36.2159C237.625 36.2159 238.158 35.8807 238.555 35.2102C238.953 34.5398 239.15 33.5341 239.146 32.1932C239.146 31.3106 239.055 30.5758 238.874 29.9886C238.696 29.4015 238.442 28.9602 238.112 28.6648C237.786 28.3693 237.402 28.2216 236.959 28.2216C236.296 28.2216 235.766 28.553 235.368 29.2159C234.97 29.8788 234.769 30.8712 234.766 32.1932C234.766 33.0871 234.855 33.8333 235.033 34.4318C235.214 35.0265 235.47 35.4735 235.8 35.7727C236.129 36.0682 236.516 36.2159 236.959 36.2159ZM249.262 38.1591C248.459 38.1591 247.743 38.0114 247.114 37.7159C246.489 37.4205 245.993 37.0133 245.626 36.4943C245.258 35.9754 245.067 35.3807 245.052 34.7102H247.438C247.465 35.161 247.654 35.5265 248.006 35.8068C248.359 36.0871 248.777 36.2273 249.262 36.2273C249.648 36.2273 249.989 36.142 250.285 35.9716C250.584 35.7973 250.817 35.5568 250.984 35.25C251.154 34.9394 251.239 34.5833 251.239 34.1818C251.239 33.7727 251.152 33.4129 250.978 33.1023C250.807 32.7917 250.571 32.5492 250.268 32.375C249.965 32.2008 249.618 32.1117 249.228 32.108C248.887 32.108 248.555 32.178 248.234 32.3182C247.915 32.4583 247.667 32.6496 247.489 32.892L245.302 32.5L245.853 26.3636H252.966V28.375H247.881L247.58 31.2898H247.648C247.853 31.0019 248.162 30.7633 248.574 30.5739C248.987 30.3845 249.449 30.2898 249.961 30.2898C250.662 30.2898 251.287 30.4545 251.836 30.7841C252.385 31.1136 252.819 31.5663 253.137 32.142C253.455 32.714 253.612 33.3731 253.609 34.1193C253.612 34.9034 253.43 35.6004 253.063 36.2102C252.699 36.8163 252.19 37.2936 251.535 37.642C250.883 37.9867 250.126 38.1591 249.262 38.1591ZM261.987 26.3636V38H259.527V28.6989H259.459L256.794 30.3693V28.1875L259.674 26.3636H261.987Z" fill="white"/>
<circle cx="33" cy="32" r="25" fill="white"/>
<path d="M44.4797 38.3086C43.7306 37.6803 39.3369 34.898 38.6066 35.0257C38.2637 35.0866 38.0014 35.3789 37.2994 36.2163C36.9748 36.6285 36.6183 37.0145 36.2331 37.3709C35.5275 37.2004 34.8445 36.9472 34.1983 36.6166C31.664 35.3827 29.6165 33.3347 28.3834 30.8C28.0528 30.1538 27.7996 29.4708 27.6291 28.7651C27.9855 28.38 28.3715 28.0235 28.7837 27.6989C29.6203 26.9969 29.9134 26.7363 29.9743 26.3917C30.102 25.6597 27.3171 21.2677 26.6914 20.5186C26.4291 20.2083 26.1909 20 25.8857 20C25.0011 20 21 24.9474 21 25.5886C21 25.6409 21.0857 30.7914 27.5906 37.4094C34.2086 43.9143 39.3591 44 39.4114 44C40.0526 44 45 39.9989 45 39.1143C45 38.8091 44.7917 38.5709 44.4797 38.3086ZM39 31.1429H40.7143C40.7122 29.3249 39.9891 27.5819 38.7036 26.2964C37.4181 25.0109 35.6751 24.2878 33.8571 24.2857V26C35.2207 26.0014 36.528 26.5436 37.4922 27.5078C38.4564 28.472 38.9986 29.7793 39 31.1429Z" fill="#31B4C9"/>
<path d="M43.286 31.1429H45.0003C44.9969 28.1886 43.8218 25.3564 41.7329 23.2674C39.6439 21.1785 36.8116 20.0034 33.8574 20V21.7143C36.3571 21.7172 38.7536 22.7115 40.5212 24.4791C42.2887 26.2467 43.283 28.6431 43.286 31.1429Z" fill="#31B4C9"/>
</svg>
