<svg width="40" height="40" viewBox="0 0 40 40" fill="none" xmlns="http://www.w3.org/2000/svg">
<path d="M38.6667 0H1.33333C0.979874 0.000529 0.641042 0.141175 0.391109 0.391109C0.141175 0.641042 0.000529 0.979874 0 1.33333V4C0.000529 4.35346 0.141175 4.69229 0.391109 4.94222C0.641042 5.19216 0.979874 5.3328 1.33333 5.33333H1.742L0.701333 8.456C0.667815 8.55617 0.658604 8.66288 0.674461 8.76731C0.690317 8.87174 0.730785 8.9709 0.792526 9.05661C0.854266 9.14232 0.935506 9.21211 1.02954 9.26023C1.12357 9.30834 1.2277 9.3334 1.33333 9.33333H1.742L0.701333 12.456C0.667815 12.5562 0.658604 12.6629 0.674461 12.7673C0.690317 12.8717 0.730785 12.9709 0.792526 13.0566C0.854266 13.1423 0.935506 13.2121 1.02954 13.2602C1.12357 13.3083 1.2277 13.3334 1.33333 13.3333H1.742L0.701333 16.456C0.667815 16.5562 0.658604 16.6629 0.674461 16.7673C0.690317 16.8717 0.730785 16.9709 0.792526 17.0566C0.854266 17.1423 0.935506 17.2121 1.02954 17.2602C1.12357 17.3083 1.2277 17.3334 1.33333 17.3333H1.742L0.701333 20.456C0.667815 20.5562 0.658604 20.6629 0.674461 20.7673C0.690317 20.8717 0.730785 20.9709 0.792526 21.0566C0.854266 21.1423 0.935506 21.2121 1.02954 21.2602C1.12357 21.3083 1.2277 21.3334 1.33333 21.3333H1.742L0.701333 24.456C0.667815 24.5562 0.658604 24.6629 0.674461 24.7673C0.690317 24.8717 0.730785 24.9709 0.792526 25.0566C0.854266 25.1423 0.935506 25.2121 1.02954 25.2602C1.12357 25.3083 1.2277 25.3334 1.33333 25.3333H3.33333V39.3333C3.33333 39.5101 3.40357 39.6797 3.5286 39.8047C3.65362 39.9298 3.82319 40 4 40H36C36.1768 40 36.3464 39.9298 36.4714 39.8047C36.5964 39.6797 36.6667 39.5101 36.6667 39.3333V25.3333H38.6667C38.7723 25.3334 38.8764 25.3083 38.9705 25.2602C39.0645 25.2121 39.1457 25.1423 39.2075 25.0566C39.2692 24.9709 39.3097 24.8717 39.3255 24.7673C39.3414 24.6629 39.3322 24.5562 39.2987 24.456L38.258 21.3333H38.6667C38.7723 21.3334 38.8764 21.3083 38.9705 21.2602C39.0645 21.2121 39.1457 21.1423 39.2075 21.0566C39.2692 20.9709 39.3097 20.8717 39.3255 20.7673C39.3414 20.6629 39.3322 20.5562 39.2987 20.456L38.258 17.3333H38.6667C38.7723 17.3334 38.8764 17.3083 38.9705 17.2602C39.0645 17.2121 39.1457 17.1423 39.2075 17.0566C39.2692 16.9709 39.3097 16.8717 39.3255 16.7673C39.3414 16.6629 39.3322 16.5562 39.2987 16.456L38.258 13.3333H38.6667C38.7723 13.3334 38.8764 13.3083 38.9705 13.2602C39.0645 13.2121 39.1457 13.1423 39.2075 13.0566C39.2692 12.9709 39.3097 12.8717 39.3255 12.7673C39.3414 12.6629 39.3322 12.5562 39.2987 12.456L38.258 9.33333H38.6667C38.7723 9.3334 38.8764 9.30834 38.9705 9.26023C39.0645 9.21211 39.1457 9.14232 39.2075 9.05661C39.2692 8.9709 39.3097 8.87174 39.3255 8.76731C39.3414 8.66288 39.3322 8.55617 39.2987 8.456L38.258 5.33333H38.6667C39.0201 5.3328 39.359 5.19216 39.6089 4.94222C39.8588 4.69229 39.9995 4.35346 40 4V1.33333C39.9995 0.979874 39.8588 0.641042 39.6089 0.391109C39.359 0.141175 39.0201 0.000529 38.6667 0ZM5.33333 5.33333V8H2.25867L3.14667 5.33333H5.33333ZM6.66667 24V21.3333H33.3333V24H6.66667ZM8.66667 34.6667V25.3333H27.3333V29.456C26.8885 29.6133 26.5136 29.9227 26.2749 30.3297C26.0362 30.7366 25.949 31.2148 26.0288 31.6798C26.1086 32.1448 26.3502 32.5666 26.7109 32.8707C27.0716 33.1748 27.5282 33.3416 28 33.3416C28.4718 33.3416 28.9284 33.1748 29.2891 32.8707C29.6498 32.5666 29.8914 32.1448 29.9712 31.6798C30.051 31.2148 29.9638 30.7366 29.7251 30.3297C29.4864 29.9227 29.1115 29.6133 28.6667 29.456V25.3333H31.3333V34.6667H8.66667ZM28.6667 31.3333C28.6667 31.4652 28.6276 31.5941 28.5543 31.7037C28.4811 31.8133 28.3769 31.8988 28.2551 31.9493C28.1333 31.9997 27.9993 32.0129 27.8699 31.9872C27.7406 31.9615 27.6218 31.898 27.5286 31.8047C27.4354 31.7115 27.3719 31.5927 27.3461 31.4634C27.3204 31.3341 27.3336 31.2 27.3841 31.0782C27.4345 30.9564 27.52 30.8523 27.6296 30.779C27.7393 30.7058 27.8681 30.6667 28 30.6667C28.1768 30.6667 28.3464 30.7369 28.4714 30.8619C28.5964 30.987 28.6667 31.1565 28.6667 31.3333ZM6.66667 20V17.3333H33.3333V20H6.66667ZM6.66667 16V13.3333H33.3333V16H6.66667ZM6.66667 12V9.33333H33.3333V12H6.66667ZM6.66667 8V5.33333H33.3333V8H6.66667ZM5.33333 9.33333V12H2.25867L3.14667 9.33333H5.33333ZM5.33333 13.3333V16H2.25867L3.14667 13.3333H5.33333ZM5.33333 17.3333V20H2.25867L3.14667 17.3333H5.33333ZM3.14667 21.3333H5.33333V24H2.25867L3.14667 21.3333ZM7.33333 25.3333V34.6667H4.66667V25.3333H7.33333ZM4.66667 38.6667V36H35.3333V38.6667H4.66667ZM35.3333 34.6667H32.6667V25.3333H35.3333V34.6667ZM37.7413 24H34.6667V21.3333H36.8533L37.7413 24ZM37.7413 20H34.6667V17.3333H36.8533L37.7413 20ZM37.7413 16H34.6667V13.3333H36.8533L37.7413 16ZM37.7413 12H34.6667V9.33333H36.8533L37.7413 12ZM37.7413 8H34.6667V5.33333H36.8533L37.7413 8ZM1.33333 4V1.33333H38.6667L38.668 4H1.33333Z" fill="white"/>
</svg>
