<svg width="40" height="40" viewBox="0 0 40 40" fill="none" xmlns="http://www.w3.org/2000/svg">
<path d="M38.0645 6.45161C38.2356 6.45161 38.3997 6.38364 38.5207 6.26265C38.6417 6.14166 38.7097 5.97756 38.7097 5.80645V3.87097H39.3548C39.5259 3.87097 39.69 3.803 39.811 3.682C39.932 3.56101 40 3.39691 40 3.22581V0.645161C40 0.474054 39.932 0.309955 39.811 0.188963C39.69 0.0679721 39.5259 0 39.3548 0H0.645161C0.474054 0 0.309955 0.0679721 0.188963 0.188963C0.0679721 0.309955 0 0.474054 0 0.645161V3.22581C0 3.39691 0.0679721 3.56101 0.188963 3.682C0.309955 3.803 0.474054 3.87097 0.645161 3.87097H1.29032V5.80645C1.29032 5.97756 1.35829 6.14166 1.47929 6.26265C1.60028 6.38364 1.76438 6.45161 1.93548 6.45161H16.7742V7.74194H7.09677C6.92567 7.74194 6.76157 7.80991 6.64058 7.9309C6.51959 8.05189 6.45161 8.21599 6.45161 8.3871V25.8064H0.645161C0.474054 25.8064 0.309955 25.8744 0.188963 25.9954C0.0679721 26.1164 0 26.2805 0 26.4516V29.0323C0 29.2034 0.0679721 29.3675 0.188963 29.4885C0.309955 29.6094 0.474054 29.6774 0.645161 29.6774H16.7742V38.0645C16.7742 38.2361 16.8419 38.4 16.9632 38.5206L17.7974 39.3548C18.629 40.1865 20.0806 40.1865 20.9123 39.3548L21.2903 38.9768C21.6355 38.6329 22.2355 38.6329 22.5806 38.9768L22.9587 39.3548C23.7903 40.1865 25.2419 40.1865 26.0735 39.3548L26.4516 38.9768C26.7968 38.6329 27.3968 38.6329 27.7419 38.9768L28.12 39.3548C28.9516 40.1865 30.4032 40.1865 31.2348 39.3548L31.6129 38.9768C31.9581 38.6329 32.5581 38.6329 32.9032 38.9768L33.2813 39.3548C33.6974 39.771 34.2503 40 34.8387 40C35.4271 40 35.9806 39.771 36.3961 39.3548L37.2303 38.5206C37.2903 38.4608 37.338 38.3897 37.3704 38.3115C37.4028 38.2332 37.4195 38.1493 37.4194 38.0645V29.6774H39.3548C39.5259 29.6774 39.69 29.6094 39.811 29.4885C39.932 29.3675 40 29.2034 40 29.0323V26.4516C40 26.2805 39.932 26.1164 39.811 25.9954C39.69 25.8744 39.5259 25.8064 39.3548 25.8064H37.4194V6.45161H38.0645ZM1.29032 1.29032H38.7097V2.58065H1.29032V1.29032ZM2.58065 3.87097H37.4194V5.16129H2.58065V3.87097ZM7.74194 9.03226H16.7742V10.3226H9.67742C9.50631 10.3226 9.34221 10.3906 9.22122 10.5115C9.10023 10.6325 9.03226 10.7966 9.03226 10.9677V17.4194C9.03226 17.5905 9.10023 17.7546 9.22122 17.8756C9.34221 17.9965 9.50631 18.0645 9.67742 18.0645H16.7742V19.3548H9.67742C9.50631 19.3548 9.34221 19.4228 9.22122 19.5438C9.10023 19.6648 9.03226 19.8289 9.03226 20V25.8064H7.74194V9.03226ZM16.7742 11.6129V16.7742H10.3226V11.6129H16.7742ZM16.7742 20.6452V25.8064H10.3226V20.6452H16.7742ZM1.29032 28.3871V27.0968H16.7742V28.3871H1.29032ZM20.3781 38.0645L20 38.4426C19.6548 38.7864 19.0548 38.7864 18.7097 38.4426L18.0645 37.7974V6.45161H21.2903V37.5419C20.947 37.6364 20.6332 37.8162 20.3781 38.0645ZM25.5394 38.0645L25.1613 38.4426C24.8161 38.7864 24.2161 38.7864 23.871 38.4426L23.4929 38.0645C23.2378 37.8162 22.9239 37.6364 22.5806 37.5419V6.45161H26.4516V37.5419C26.1083 37.6364 25.7945 37.8162 25.5394 38.0645ZM30.7006 38.0645L30.3226 38.4426C29.9774 38.7864 29.3774 38.7864 29.0323 38.4426L28.6542 38.0645C28.399 37.8162 28.0852 37.6364 27.7419 37.5419V6.45161H31.6129V37.5419C31.2696 37.6364 30.9558 37.8162 30.7006 38.0645ZM38.7097 27.0968V28.3871H37.4194V27.0968H38.7097ZM36.129 37.7974L35.4839 38.4426C35.1387 38.7864 34.5387 38.7864 34.1935 38.4426L33.8155 38.0645C33.5603 37.8162 33.2465 37.6364 32.9032 37.5419V6.45161H36.129V37.7974Z" fill="white"/>
<path d="M4.51615 30.9678H15.4839V32.2581H4.51615V30.9678ZM4.51615 36.1291H15.4839V37.4194H4.51615V36.1291ZM3.22583 33.5484H12.9032V34.8387H3.22583V33.5484ZM14.1936 33.5484H15.4839V34.8387H14.1936V33.5484Z" fill="white"/>
</svg>
