<svg width="43" height="42" viewBox="0 0 43 42" fill="none" xmlns="http://www.w3.org/2000/svg">
<path d="M40.4278 8.34011H1.969C1.44696 8.33955 0.946461 8.13193 0.577323 7.76279C0.208185 7.39365 0.000558431 6.89316 0 6.37112V1.969C0 0.883236 0.883237 0 1.969 0H40.4271C41.5128 0 42.396 0.883236 42.396 1.969V6.37041C42.3959 6.89251 42.1885 7.39319 41.8194 7.7625C41.4504 8.13181 40.9499 8.33955 40.4278 8.34011ZM1.969 1.41698C1.82246 1.41716 1.68198 1.47545 1.57837 1.57907C1.47475 1.68269 1.41646 1.82317 1.41627 1.9697V6.37112C1.41627 6.67561 1.66451 6.92384 1.969 6.92384H40.4271C40.5736 6.92366 40.7141 6.86536 40.8177 6.76175C40.9213 6.65813 40.9796 6.51765 40.9798 6.37112V1.969C40.9796 1.82246 40.9213 1.68198 40.8177 1.57837C40.7141 1.47475 40.5736 1.41646 40.4271 1.41627L1.969 1.41698Z" fill="white"/>
<path d="M39.162 41.7216H3.2334C3.0456 41.7216 2.86548 41.6469 2.73268 41.5141C2.59988 41.3813 2.52527 41.2012 2.52527 41.0134V7.63538C2.52527 7.44757 2.59988 7.26746 2.73268 7.13465C2.86548 7.00185 3.0456 6.92725 3.2334 6.92725C3.42121 6.92725 3.60133 7.00185 3.73413 7.13465C3.86693 7.26746 3.94154 7.44757 3.94154 7.63538V40.3046H38.4539V7.63538C38.4539 7.44757 38.5285 7.26746 38.6613 7.13465C38.7941 7.00185 38.9742 6.92725 39.162 6.92725C39.3498 6.92725 39.5299 7.00185 39.6627 7.13465C39.7955 7.26746 39.8701 7.44757 39.8701 7.63538V41.0134C39.8701 41.4044 39.5537 41.7216 39.162 41.7216Z" fill="white"/>
<path d="M35.7809 38.3061H22.841C22.6532 38.3061 22.4731 38.2315 22.3403 38.0987C22.2075 37.9659 22.1329 37.7858 22.1329 37.598C22.1329 37.4102 22.2075 37.2301 22.3403 37.0973C22.4731 36.9645 22.6532 36.8899 22.841 36.8899H35.0727V8.3401H7.32252V36.8892H19.5549C19.7427 36.8892 19.9229 36.9638 20.0557 37.0966C20.1885 37.2294 20.2631 37.4095 20.2631 37.5973C20.2631 37.7851 20.1885 37.9652 20.0557 38.098C19.9229 38.2308 19.7427 38.3054 19.5549 38.3054H6.61439C6.42658 38.3054 6.24646 38.2308 6.11366 38.098C5.98086 37.9652 5.90625 37.7851 5.90625 37.5973V7.63196C5.90625 7.24098 6.2227 6.92383 6.61439 6.92383H35.7816C36.1733 6.92383 36.4897 7.24098 36.4897 7.63196V37.5973C36.4895 37.7852 36.4148 37.9654 36.2819 38.0983C36.149 38.2312 35.9688 38.306 35.7809 38.3061Z" fill="white"/>
<path d="M22.841 38.3068C22.6532 38.3068 22.4731 38.2322 22.3403 38.0994C22.2075 37.9666 22.1329 37.7865 22.1329 37.5987V31.4646C22.1329 31.2767 22.2075 31.0966 22.3403 30.9638C22.4731 30.831 22.6532 30.7564 22.841 30.7564C23.0288 30.7564 23.209 30.831 23.3418 30.9638C23.4746 31.0966 23.5492 31.2767 23.5492 31.4646V37.5987C23.5492 37.989 23.2327 38.3068 22.841 38.3068ZM19.5535 38.3068C19.3657 38.3068 19.1856 38.2322 19.0528 38.0994C18.92 37.9666 18.8454 37.7865 18.8454 37.5987L18.8461 31.4646C18.8461 31.2767 18.9207 31.0966 19.0535 30.9638C19.1863 30.831 19.3664 30.7564 19.5542 30.7564C19.742 30.7564 19.9221 30.831 20.0549 30.9638C20.1877 31.0966 20.2624 31.2767 20.2624 31.4646L20.2617 37.5987C20.2617 37.989 19.9452 38.3068 19.5535 38.3068ZM35.7809 11.6135H6.61439C6.42658 11.6135 6.24646 11.5389 6.11366 11.4061C5.98086 11.2733 5.90625 11.0932 5.90625 10.9054C5.90625 10.7176 5.98086 10.5375 6.11366 10.4047C6.24646 10.2719 6.42658 10.1973 6.61439 10.1973H35.7816C35.9694 10.1974 36.1495 10.2721 36.2822 10.4049C36.4149 10.5378 36.4895 10.7179 36.4894 10.9058C36.4893 11.0936 36.4146 11.2736 36.2817 11.4064C36.1488 11.5391 35.9687 11.6136 35.7809 11.6135ZM35.7809 14.5916H6.61439C6.52139 14.5916 6.42931 14.5733 6.34339 14.5377C6.25748 14.5022 6.17942 14.45 6.11366 14.3842C6.0479 14.3185 5.99574 14.2404 5.96015 14.1545C5.92457 14.0686 5.90625 13.9765 5.90625 13.8835C5.90625 13.7905 5.92457 13.6984 5.96015 13.6125C5.99574 13.5266 6.0479 13.4485 6.11366 13.3828C6.17942 13.317 6.25748 13.2649 6.34339 13.2293C6.42931 13.1937 6.52139 13.1754 6.61439 13.1754H35.7816C35.9694 13.1755 36.1495 13.2502 36.2822 13.383C36.4149 13.5159 36.4895 13.6961 36.4894 13.8839C36.4893 14.0717 36.4146 14.2518 36.2817 14.3845C36.1488 14.5172 35.9687 14.5917 35.7809 14.5916ZM35.7809 17.5705H6.61439C6.42658 17.5705 6.24646 17.4959 6.11366 17.3631C5.98086 17.2303 5.90625 17.0501 5.90625 16.8623C5.90625 16.6745 5.98086 16.4944 6.11366 16.3616C6.24646 16.2288 6.42658 16.1542 6.61439 16.1542H35.7816C35.9694 16.1543 36.1495 16.229 36.2822 16.3618C36.4149 16.4947 36.4895 16.6749 36.4894 16.8627C36.4893 17.0505 36.4146 17.2306 36.2817 17.3633C36.1488 17.496 35.9687 17.5706 35.7809 17.5705ZM35.7809 20.5493H6.61439C6.42658 20.5493 6.24646 20.4747 6.11366 20.3419C5.98086 20.2091 5.90625 20.0289 5.90625 19.8411C5.90625 19.6533 5.98086 19.4732 6.11366 19.3404C6.24646 19.2076 6.42658 19.133 6.61439 19.133H35.7816C35.8746 19.133 35.9666 19.1514 36.0525 19.187C36.1384 19.2227 36.2165 19.2749 36.2822 19.3407C36.3479 19.4064 36.4 19.4845 36.4356 19.5705C36.4711 19.6564 36.4894 19.7485 36.4894 19.8415C36.4893 19.9345 36.471 20.0266 36.4353 20.1125C36.3997 20.1984 36.3475 20.2764 36.2817 20.3421C36.2159 20.4078 36.1378 20.46 36.0519 20.4955C35.966 20.531 35.8739 20.5493 35.7809 20.5493ZM35.7809 23.5274H6.61439C6.42658 23.5274 6.24646 23.4528 6.11366 23.32C5.98086 23.1872 5.90625 23.0071 5.90625 22.8192C5.90625 22.6314 5.98086 22.4513 6.11366 22.3185C6.24646 22.1857 6.42658 22.1111 6.61439 22.1111H35.7816C35.9694 22.1112 36.1495 22.1859 36.2822 22.3188C36.4149 22.4516 36.4895 22.6318 36.4894 22.8196C36.4893 23.0074 36.4146 23.1875 36.2817 23.3202C36.1488 23.453 35.9687 23.5275 35.7809 23.5274ZM35.7809 26.5062H6.61439C6.42658 26.5062 6.24646 26.4316 6.11366 26.2988C5.98086 26.166 5.90625 25.9859 5.90625 25.7981C5.90625 25.6103 5.98086 25.4301 6.11366 25.2973C6.24646 25.1645 6.42658 25.0899 6.61439 25.0899H35.7816C35.8746 25.09 35.9666 25.1083 36.0525 25.144C36.1384 25.1796 36.2165 25.2318 36.2822 25.2976C36.3479 25.3634 36.4 25.4415 36.4356 25.5274C36.4711 25.6133 36.4894 25.7054 36.4894 25.7984C36.4893 25.8914 36.471 25.9835 36.4353 26.0694C36.3997 26.1553 36.3475 26.2333 36.2817 26.299C36.2159 26.3648 36.1378 26.4169 36.0519 26.4524C35.966 26.488 35.8739 26.5062 35.7809 26.5062ZM35.7809 29.485H6.61439C6.42658 29.485 6.24646 29.4104 6.11366 29.2776C5.98086 29.1448 5.90625 28.9647 5.90625 28.7769C5.90625 28.5891 5.98086 28.4089 6.11366 28.2761C6.24646 28.1433 6.42658 28.0687 6.61439 28.0687H35.7816C35.8746 28.0688 35.9666 28.0871 36.0525 28.1228C36.1384 28.1584 36.2165 28.2106 36.2822 28.2764C36.3479 28.3422 36.4 28.4203 36.4356 28.5062C36.4711 28.5921 36.4894 28.6842 36.4894 28.7772C36.4893 28.8702 36.471 28.9623 36.4353 29.0482C36.3997 29.1341 36.3475 29.2121 36.2817 29.2779C36.2159 29.3436 36.1378 29.3957 36.0519 29.4312C35.966 29.4668 35.8739 29.4851 35.7809 29.485Z" fill="white"/>
</svg>
