<svg width="337" height="72" viewBox="0 0 337 72" fill="none" xmlns="http://www.w3.org/2000/svg">
<g clip-path="url(#clip0_20_1129)">
<path d="M217.3 18.3999H222.82L220.21 30.9399H234.96L237.57 18.3999H243.09L236.55 49.9399H231.03L233.99 35.7199H219.24L216.28 49.9399H210.76L217.3 18.3999Z" fill="white"/>
<path d="M262.71 43.3102C262.62 43.7202 262.53 44.1202 262.42 44.5002C262.32 44.8802 262.27 45.2402 262.27 45.5602C262.27 45.8802 262.34 46.1302 262.49 46.3102C262.64 46.4902 262.92 46.5702 263.33 46.5702C263.62 46.5702 263.92 46.5302 264.21 46.4602C264.5 46.3902 264.8 46.3402 265.09 46.3102L264.29 49.9302C263.64 50.0802 262.99 50.2202 262.35 50.3502C261.7 50.4802 261.04 50.5502 260.36 50.5502C259.51 50.5502 258.8 50.2902 258.24 49.7602C257.68 49.2302 257.37 48.5202 257.31 47.6402C256.31 48.6402 255.13 49.3802 253.78 49.8502C252.42 50.3202 251.04 50.5602 249.63 50.5602C248.69 50.5602 247.79 50.4302 246.94 50.1602C246.09 49.9002 245.33 49.5102 244.67 49.0102C244.01 48.5102 243.48 47.8802 243.1 47.1102C242.72 46.3402 242.53 45.4602 242.53 44.4602C242.53 43.0502 242.79 41.8602 243.32 40.9002C243.85 39.9402 244.56 39.1602 245.44 38.5402C246.32 37.9202 247.34 37.4702 248.49 37.1702C249.64 36.8802 250.85 36.6802 252.11 36.6002C253.82 36.4802 255.5 36.3502 257.15 36.2002C258.06 36.1402 258.73 35.8402 259.16 35.2902C259.59 34.7402 259.8 34.0502 259.8 33.1902C259.8 32.1002 259.42 31.3702 258.65 31.0002C257.88 30.6302 256.99 30.4502 255.96 30.4502C254.55 30.4502 253.33 30.6902 252.32 31.1802C251.3 31.6702 250.62 32.6202 250.27 34.0302H245.5C245.77 32.6202 246.22 31.4302 246.87 30.4702C247.52 29.5102 248.31 28.7302 249.26 28.1302C250.21 27.5302 251.27 27.1002 252.46 26.8502C253.65 26.6002 254.93 26.4702 256.28 26.4702C258.34 26.4702 259.95 26.6702 261.12 27.0702C262.29 27.4702 263.14 27.9502 263.68 28.5102C264.22 29.0702 264.56 29.6502 264.67 30.2602C264.79 30.8602 264.85 31.3702 264.85 31.7802C264.85 32.7802 264.7 33.9302 264.41 35.2302L262.73 43.3102H262.71ZM247.56 43.6702C247.56 44.2302 247.68 44.6902 247.94 45.0602C248.19 45.4302 248.51 45.7202 248.89 45.9402C249.27 46.1602 249.7 46.3202 250.17 46.4302C250.64 46.5302 251.11 46.5802 251.58 46.5802C252.82 46.5802 253.85 46.3702 254.69 45.9602C255.53 45.5502 256.22 44.9902 256.77 44.2802C257.31 43.5702 257.74 42.7402 258.05 41.7802C258.36 40.8202 258.6 39.8002 258.78 38.7102L258.69 38.6202C258.34 38.9702 257.87 39.2202 257.28 39.3702C256.69 39.5202 256.12 39.6202 255.56 39.6802C254.85 39.7402 254.04 39.8002 253.11 39.8602C252.18 39.9202 251.31 40.0702 250.5 40.3202C249.69 40.5702 249 40.9502 248.42 41.4702C247.85 41.9902 247.56 42.7202 247.56 43.6602V43.6702Z" fill="white"/>
<path d="M268.98 27.1001H274.19L276.09 43.7501H276.18L285.01 27.1001H290.31L277.68 49.9401H272.07L268.98 27.1001Z" fill="white"/>
<path d="M310.99 42.8702C310.19 45.5502 308.85 47.5002 306.97 48.7202C305.09 49.9402 302.76 50.5502 299.99 50.5502C298.55 50.5502 297.21 50.3202 295.99 49.8702C294.77 49.4102 293.72 48.7502 292.83 47.8802C291.95 47.0102 291.25 45.9702 290.75 44.7402C290.25 43.5202 290 42.1302 290 40.5702C290 38.8002 290.28 37.0802 290.84 35.4002C291.4 33.7202 292.22 32.2202 293.29 30.9002C294.36 29.5702 295.69 28.5102 297.27 27.7002C298.84 26.8902 300.65 26.4902 302.68 26.4902C304.71 26.4902 306.36 26.8302 307.63 27.5102C308.9 28.1902 309.88 29.0402 310.59 30.0702C311.3 31.1002 311.77 32.2402 312.03 33.4702C312.28 34.7102 312.41 35.8902 312.41 37.0002C312.41 37.5602 312.38 38.0802 312.32 38.5502C312.26 39.0202 312.2 39.4502 312.14 39.8302H295.13C295.1 39.9802 295.08 40.1102 295.06 40.2302C295.05 40.3502 295.04 40.4702 295.04 40.5802V41.2902C295.04 42.8802 295.46 44.1602 296.3 45.1302C297.14 46.1002 298.53 46.5902 300.47 46.5902C301.82 46.5902 302.99 46.2802 303.96 45.6602C304.93 45.0402 305.59 44.1102 305.95 42.8802H310.99V42.8702ZM307.32 36.5102C307.35 36.3602 307.36 36.2402 307.36 36.1302V35.0902C307.36 33.7402 306.93 32.6202 306.08 31.7602C305.23 30.8902 304.05 30.4602 302.55 30.4602C300.67 30.4602 299.16 31.0302 298.04 32.1602C296.92 33.2902 296.11 34.7402 295.61 36.5102H307.32Z" fill="white"/>
<path d="M318.32 27.1H323.05L322.34 30.41L322.43 30.5C323.34 29.23 324.48 28.25 325.85 27.54C327.22 26.83 328.7 26.48 330.29 26.48C332.59 26.48 334.27 27.02 335.35 28.11C336.42 29.2 336.96 30.67 336.96 32.53C336.96 32.94 336.94 33.41 336.92 33.94C336.89 34.47 336.83 34.94 336.74 35.35L333.69 49.93H328.65L331.57 35.84C331.66 35.46 331.74 35.09 331.81 34.74C331.88 34.39 331.92 34.05 331.92 33.72C331.92 33.54 331.92 33.27 331.9 32.9C331.88 32.53 331.78 32.16 331.57 31.8C331.36 31.44 331.02 31.12 330.53 30.85C330.04 30.59 329.34 30.45 328.43 30.45C327.43 30.45 326.54 30.66 325.76 31.09C324.98 31.52 324.28 32.04 323.66 32.66C323.07 33.25 322.56 33.98 322.14 34.85C321.71 35.72 321.4 36.62 321.19 37.57L318.63 49.94H313.59L318.32 27.1Z" fill="white"/>
<path d="M31.69 61.6799C22.4 61.0199 9.86 60.4299 0.229996 59.9399C8.56 60.9599 22.59 62.7699 31.69 63.9599V61.6899V61.6799Z" fill="white"/>
<path d="M31.69 51.7499L0 51.1499V56.7399L31.69 58.5499V51.7499Z" fill="#31B4C9"/>
<path d="M35.83 51.8398V58.8198L42.83 59.2698V51.9798L35.83 51.8398Z" fill="#31B4C9"/>
<path d="M31.69 41.1602L0 42.4502V48.8302L31.69 48.2902V41.1602Z" fill="#31B4C9"/>
<path d="M35.83 40.9699V48.2199L42.83 48.0799V40.6499L35.83 40.9699Z" fill="#31B4C9"/>
<path d="M31.69 30.8901L0 33.6501V40.0301L31.69 38.0101V30.8901Z" fill="#31B4C9"/>
<path d="M35.83 30.4901V37.7201L42.83 37.2201V29.8101L35.83 30.4901Z" fill="#31B4C9"/>
<path d="M35.83 20.1298V27.5298L42.83 26.7198V19.0698L35.83 20.1298Z" fill="#31B4C9"/>
<path d="M31.69 20.7598L0 25.0498V31.2798L31.69 28.0098V20.7598Z" fill="#31B4C9"/>
<path d="M31.69 10.5801L0 16.6301V22.5801L31.69 17.5301V10.5801Z" fill="#31B4C9"/>
<path d="M35.83 9.6902V16.7902L42.83 15.5402V8.2002L35.83 9.6902Z" fill="#31B4C9"/>
<path d="M35.94 69.4499H34V9.9599L35.94 9.6499V69.4499Z" fill="#31B4C9"/>
<path d="M34.97 71.4301C36.2347 71.4301 37.26 70.4048 37.26 69.1401C37.26 67.8754 36.2347 66.8501 34.97 66.8501C33.7053 66.8501 32.68 67.8754 32.68 69.1401C32.68 70.4048 33.7053 71.4301 34.97 71.4301Z" fill="#31B4C9"/>
<path d="M58.15 9.6499H190.41C198.44 9.6499 204.96 16.1699 204.96 24.1999V60.2499H72.6C64.63 60.2499 58.15 53.7799 58.15 45.7999V9.6499Z" fill="#31B4C9"/>
<path d="M72.43 42.0099C72.75 42.7599 73.22 43.3599 73.84 43.7999C74.46 44.2399 75.19 44.5599 76.05 44.7499C76.91 44.9399 77.83 45.0399 78.83 45.0399C79.54 45.0399 80.24 44.9499 80.95 44.7699C81.66 44.5899 82.3 44.3299 82.87 43.9799C83.44 43.6299 83.91 43.1699 84.28 42.6099C84.65 42.0499 84.83 41.3699 84.83 40.5799C84.83 39.7899 84.59 39.1899 84.12 38.6999C83.65 38.2099 83.04 37.7899 82.29 37.4399C81.54 37.0899 80.69 36.7799 79.73 36.5099C78.77 36.2499 77.81 35.9699 76.84 35.6699C75.84 35.3799 74.87 35.0199 73.92 34.6099C72.98 34.1999 72.13 33.6699 71.38 33.0199C70.63 32.3699 70.02 31.5799 69.57 30.6399C69.11 29.6999 68.89 28.5499 68.89 27.1899C68.89 25.4199 69.26 23.9199 69.99 22.6799C70.73 21.4399 71.68 20.4299 72.86 19.6499C74.04 18.8699 75.37 18.2999 76.86 17.9299C78.35 17.5599 79.86 17.3799 81.39 17.3799C83.01 17.3799 84.53 17.5599 85.96 17.9299C87.39 18.2999 88.64 18.8899 89.71 19.7199C90.78 20.5499 91.64 21.5999 92.27 22.8799C92.9 24.1599 93.22 25.7099 93.22 27.5399H86.64C86.67 26.6599 86.54 25.9099 86.26 25.3099C85.98 24.7099 85.58 24.2099 85.07 23.8299C84.55 23.4499 83.94 23.1699 83.24 23.0099C82.53 22.8499 81.78 22.7699 80.99 22.7699C80.34 22.7699 79.69 22.8399 79.02 22.9699C78.36 23.0999 77.76 23.3199 77.23 23.6299C76.7 23.9399 76.27 24.3399 75.95 24.8399C75.63 25.3399 75.46 25.9599 75.46 26.6999C75.46 27.4399 75.75 28.1099 76.32 28.6199C76.89 29.1299 77.59 29.5599 78.4 29.8999C79.21 30.2399 80.04 30.4999 80.9 30.6899C81.75 30.8799 82.45 31.0399 82.98 31.1499C84.22 31.4799 85.35 31.8499 86.38 32.2799C87.41 32.7099 88.3 33.2599 89.05 33.9399C89.8 34.6199 90.38 35.4399 90.79 36.4099C91.2 37.3799 91.41 38.5699 91.41 39.9899C91.41 41.8799 91.02 43.4799 90.24 44.8099C89.46 46.1399 88.46 47.2099 87.24 48.0299C86.02 48.8599 84.64 49.4499 83.11 49.8199C81.58 50.1899 80.06 50.3699 78.56 50.3699C74.14 50.3699 70.85 49.4699 68.69 47.6799C66.52 45.8799 65.44 43.0599 65.44 39.1999H72.02C71.96 40.3199 72.09 41.2499 72.42 41.9999L72.43 42.0099Z" fill="white"/>
<path d="M106.17 18.1401L103.83 29.4901H103.92C104.16 29.1701 104.49 28.8101 104.94 28.4301C105.38 28.0501 105.91 27.6901 106.53 27.3701C107.15 27.0501 107.87 26.7701 108.69 26.5501C109.51 26.3301 110.44 26.2201 111.47 26.2201C115.92 26.2201 118.14 28.2701 118.14 32.3601C118.14 32.6001 118.11 32.9001 118.05 33.2701C117.99 33.6401 117.93 34.0101 117.85 34.4001C117.78 34.7801 117.7 35.1401 117.63 35.4801C117.56 35.8201 117.51 36.0901 117.48 36.3001L114.65 49.6801H108.38L111.16 36.3001C111.22 35.9501 111.3 35.4801 111.4 34.8901C111.5 34.3001 111.55 33.8501 111.55 33.5201C111.55 32.8401 111.23 32.2801 110.6 31.8401C109.97 31.4001 109.28 31.1801 108.55 31.1801C107.61 31.1801 106.78 31.3601 106.05 31.7301C105.32 32.1001 104.71 32.5801 104.19 33.1701C103.68 33.7601 103.25 34.4401 102.91 35.2001C102.57 35.9701 102.31 36.7501 102.14 37.5401L99.58 49.6901H93.35L99.89 18.1501H106.16L106.17 18.1401Z" fill="white"/>
<path d="M124.81 30.17C125.49 29.21 126.31 28.44 127.28 27.85C128.25 27.26 129.34 26.84 130.55 26.59C131.76 26.34 133.01 26.21 134.3 26.21C135.33 26.21 136.41 26.28 137.52 26.43C138.63 26.58 139.67 26.86 140.61 27.29C141.55 27.72 142.32 28.32 142.93 29.1C143.53 29.88 143.82 30.92 143.79 32.21C143.79 33.3 143.63 34.58 143.3 36.05L141.27 45.24C141.15 45.65 141.07 46.16 141.03 46.76C140.99 47.36 140.96 47.89 140.96 48.33C140.96 48.71 141.03 49.16 141.18 49.66H134.91V47.41C134.06 48.38 133.01 49.1 131.77 49.55C130.53 50.01 129.25 50.23 127.93 50.23C126.69 50.23 125.61 50.07 124.68 49.74C123.75 49.42 122.98 48.98 122.36 48.44C121.74 47.9 121.28 47.26 120.99 46.54C120.7 45.82 120.55 45.06 120.55 44.27C120.55 42.06 121.31 40.29 122.82 38.97C124.33 37.65 126.48 36.82 129.25 36.5C130.72 36.32 132 36.19 133.09 36.1C134.18 36.01 135.08 35.87 135.81 35.68C136.53 35.49 137.07 35.21 137.42 34.84C137.77 34.47 137.95 33.92 137.95 33.18C137.95 32.59 137.82 32.12 137.55 31.77C137.29 31.42 136.95 31.14 136.56 30.93C136.16 30.72 135.73 30.58 135.28 30.51C134.82 30.44 134.39 30.4 133.98 30.4C132.86 30.4 131.86 30.67 130.98 31.22C130.1 31.77 129.55 32.61 129.35 33.76H123.48C123.69 32.32 124.13 31.12 124.81 30.16V30.17ZM134.18 39.58C133.27 39.68 132.35 39.76 131.44 39.82C130.85 39.88 130.28 39.97 129.72 40.11C129.16 40.24 128.67 40.44 128.24 40.71C127.81 40.98 127.47 41.34 127.2 41.79C126.94 42.25 126.8 42.83 126.8 43.54C126.8 44.39 127.15 45.04 127.84 45.46C128.53 45.89 129.33 46.1 130.25 46.1C131.22 46.1 132.04 45.95 132.7 45.64C133.36 45.33 133.92 44.93 134.38 44.45C134.84 43.96 135.2 43.41 135.46 42.79C135.73 42.17 135.95 41.55 136.12 40.93L136.74 38.72C135.95 39.19 135.09 39.48 134.18 39.58Z" fill="white"/>
<path d="M162.18 46.7601C161.47 48.0001 160.51 48.8901 159.29 49.4301C158.07 49.9701 156.75 50.2501 155.34 50.2501C152.57 50.2501 150.43 49.4501 148.91 47.8401C147.39 46.2401 146.63 44.0501 146.63 41.2801C146.63 39.4001 146.88 37.5601 147.38 35.7601C147.88 33.9601 148.65 32.3601 149.68 30.9501C150.71 29.5401 152.01 28.4001 153.57 27.5301C155.13 26.6601 156.97 26.2301 159.09 26.2301C160.42 26.2301 161.69 26.5201 162.91 27.1101C164.13 27.7001 164.99 28.6301 165.49 29.8901H165.58L168.1 18.1401H174.37L167.7 49.6801H161.65L162.27 46.8501L162.18 46.7601ZM156.68 31.8701C155.81 32.4901 155.1 33.2701 154.54 34.2101C153.98 35.1501 153.57 36.1801 153.3 37.3001C153.04 38.4201 152.9 39.4801 152.9 40.4801C152.9 41.1601 153 41.8101 153.19 42.4201C153.38 43.0301 153.66 43.5801 154.03 44.0301C154.4 44.4901 154.86 44.8601 155.42 45.1301C155.98 45.4101 156.63 45.5501 157.36 45.5501C158.54 45.5501 159.55 45.2301 160.41 44.6001C161.26 43.9701 161.98 43.1601 162.55 42.1901C163.12 41.2201 163.55 40.1701 163.83 39.0301C164.11 37.9001 164.25 36.8401 164.25 35.8701C164.25 34.3701 163.88 33.1701 163.15 32.2701C162.42 31.3701 161.28 30.9201 159.75 30.9201C158.57 30.9201 157.55 31.2301 156.68 31.8501V31.8701Z" fill="white"/>
<path d="M179.63 40.1802V41.1102C179.63 42.4402 180.04 43.5102 180.87 44.3302C181.69 45.1602 182.96 45.5702 184.67 45.5702C185.29 45.5702 185.84 45.4702 186.33 45.2802C186.82 45.0902 187.24 44.8502 187.61 44.5502C187.98 44.2602 188.3 43.9202 188.58 43.5302C188.86 43.1502 189.12 42.7802 189.35 42.4302H195.62C195.12 43.7302 194.53 44.8602 193.85 45.8302C193.17 46.8002 192.36 47.6202 191.42 48.2802C190.48 48.9402 189.38 49.4402 188.13 49.7602C186.88 50.0802 185.43 50.2502 183.78 50.2502C182.25 50.2502 180.86 50.0402 179.61 49.6302C178.36 49.2202 177.29 48.5902 176.41 47.7502C175.53 46.9102 174.84 45.8702 174.36 44.6402C173.87 43.4002 173.63 41.9602 173.63 40.3102C173.63 38.4802 173.92 36.7302 174.51 35.0302C175.1 33.3402 175.93 31.8402 177.01 30.5302C178.09 29.2202 179.4 28.1702 180.96 27.3902C182.52 26.6102 184.27 26.2202 186.22 26.2202C187.81 26.2202 189.26 26.4302 190.57 26.8402C191.88 27.2502 193 27.8802 193.93 28.7202C194.86 29.5602 195.58 30.6002 196.09 31.8602C196.6 33.1102 196.86 34.5602 196.86 36.2102C196.86 37.3302 196.74 38.5202 196.51 39.7902H179.68C179.65 39.9402 179.64 40.0702 179.64 40.1902L179.63 40.1802ZM190.65 34.0602C190.55 33.4902 190.35 32.9602 190.05 32.4902C189.76 32.0202 189.33 31.6402 188.77 31.3602C188.21 31.0802 187.47 30.9402 186.56 30.9402C185.65 30.9402 184.9 31.0702 184.22 31.3402C183.54 31.6102 182.95 31.9602 182.45 32.4002C181.95 32.8402 181.53 33.3602 181.19 33.9502C180.85 34.5402 180.56 35.1602 180.33 35.8102H190.8C190.8 35.2202 190.75 34.6402 190.65 34.0602Z" fill="white"/>
<path d="M49.32 0C47.21 0.55 45.27 1.12 43.42 1.7L0.199997 14.06L45.98 4.28C45.87 13.33 45.81 24.04 45.81 32.7C45.81 41.43 45.9 53.67 46.01 62.72C42.56 62.47 40.92 62.22 37.57 61.98V64.46C37.95 64.5 37.32 64.55 37.7 64.59C43.28 65.18 43.72 65.78 49.31 66.3C49.36 60.4 49.48 54.49 49.49 48.6C49.57 33.02 49.56 15.5 49.33 0L49.32 0Z" fill="white"/>
</g>
<defs>
<clipPath id="clip0_20_1129">
<rect width="336.96" height="71.43" fill="white"/>
</clipPath>
</defs>
</svg>
