<svg width="67" height="67" viewBox="0 0 67 67" fill="none" xmlns="http://www.w3.org/2000/svg">
<path d="M51.6701 34.9121C52.2336 34.6272 52.7025 34.1851 53.0201 33.6393C53.3377 33.0935 53.4904 32.4675 53.4598 31.8368C53.4292 31.2061 53.2165 30.5977 52.8475 30.0853C52.4785 29.5729 51.969 29.1783 51.3805 28.9493C51.589 28.172 51.5032 27.3451 51.1395 26.6272C50.7758 25.9093 50.1598 25.3509 49.4098 25.0592C49.5364 24.5867 49.5553 24.0918 49.4651 23.611C49.3749 23.1302 49.178 22.6758 48.8888 22.2812C48.5997 21.8866 48.2256 21.562 47.7943 21.3313C47.3629 21.1006 46.8853 20.9696 46.3966 20.948L53.3261 15.4907C53.5041 15.3505 53.634 15.1582 53.6978 14.9408C53.7615 14.7233 53.7559 14.4913 53.6817 14.2772C53.6075 14.0631 53.4684 13.8774 53.2837 13.7459C53.0991 13.6145 52.8781 13.5439 52.6515 13.5439H44.4914C44.5016 13.5153 44.5143 13.488 44.5238 13.4589C44.7252 12.8441 44.7398 12.1834 44.5656 11.5604C44.3915 10.9374 44.0365 10.38 43.5456 9.95867C43.0547 9.53738 42.4499 9.27114 41.8076 9.19361C41.1654 9.11608 40.5146 9.23074 39.9375 9.5231L37.6004 10.7071L34.5398 1.52536C34.4673 1.30826 34.3284 1.11946 34.1427 0.985675C33.957 0.851893 33.7339 0.779907 33.505 0.779907C33.2762 0.779907 33.0531 0.851893 32.8674 0.985675C32.6817 1.11946 32.5428 1.30826 32.4703 1.52536L28.464 13.5439H14.3585C14.1319 13.5439 13.9109 13.6146 13.7263 13.746C13.5417 13.8774 13.4027 14.0631 13.3285 14.2772C13.2543 14.4913 13.2486 14.7232 13.3123 14.9406C13.376 15.1581 13.5059 15.3503 13.6839 15.4905L19.2165 19.8478L17.0748 21.5136C16.4176 22.0214 15.886 22.6736 15.5211 23.4197C15.1562 24.1658 14.9678 24.9858 14.9704 25.8164V35.0474C14.9715 35.8761 14.6569 36.6741 14.0907 37.2792L0 52.376L1.59421 53.8638L15.6848 38.7671C16.6284 37.7586 17.1526 36.4287 17.1509 35.0476V25.8164C17.1493 25.318 17.2624 24.826 17.4813 24.3783C17.7003 23.9307 18.0193 23.5393 18.4136 23.2347L25.3987 17.8017L25.9731 19.238C26.2113 19.8322 26.2697 20.4833 26.141 21.1105C26.0122 21.7376 25.7021 22.3131 25.2491 22.7655L21.8311 26.1834C21.6267 26.3878 21.5119 26.6651 21.5119 26.9542C21.5119 27.2434 21.6267 27.5206 21.8311 27.7251C22.3591 28.2528 22.8036 28.8579 23.1491 29.5196L20.4617 37.3871C20.3872 37.6051 20.3837 37.8411 20.4518 38.0613C20.5198 38.2814 20.6558 38.4743 20.8402 38.6123C21.0247 38.7504 21.2482 38.8264 21.4785 38.8296C21.7089 38.8327 21.9343 38.7628 22.1225 38.6298L33.505 30.5874L43.1545 37.4054L40.6671 39.0407L28.1543 42.8908C26.9337 43.2672 25.8837 44.0596 25.1869 45.1301L11.8757 65.6088L13.7039 66.7972L27.0151 46.3186C27.4332 45.6763 28.0632 45.2009 28.7955 44.9749L41.4569 41.0792C41.5554 41.0489 41.649 41.0048 41.7351 40.9482L48.3848 36.5764L51.6701 34.9121ZM20.9896 18.4688L17.5049 15.7244H24.518L20.9896 18.4688ZM36.4892 14.0724C36.5334 13.9362 36.6042 13.8101 36.6974 13.7014C36.7907 13.5927 36.9046 13.5036 37.0325 13.4393L40.9228 11.4684C41.1807 11.3377 41.48 11.3148 41.7548 11.4048C42.0296 11.4948 42.2574 11.6903 42.3881 11.9482C42.5187 12.2061 42.5416 12.5054 42.4516 12.7802C42.3616 13.055 42.1662 13.2828 41.9082 13.4135L38.018 15.3842C37.8256 15.4817 37.6087 15.5199 37.3946 15.4941C37.1806 15.4682 36.979 15.3795 36.8153 15.2391C36.6517 15.0986 36.5334 14.9129 36.4753 14.7052C36.4172 14.4975 36.4221 14.2773 36.4892 14.0724ZM43.1172 34.7093L34.1341 28.3621C33.9501 28.2321 33.7303 28.1623 33.505 28.1623C33.2798 28.1623 33.06 28.2321 32.876 28.3621L23.613 34.9068L27.2319 24.3124C27.2922 24.1338 27.3048 23.9427 27.2687 23.7577C27.8415 23.0086 28.2098 22.1236 28.3376 21.1893C28.4653 20.255 28.3482 19.3036 27.9976 18.4282L26.916 15.7243H29.2498C29.4787 15.7243 29.7017 15.6523 29.8873 15.5185C30.073 15.3847 30.2118 15.1959 30.2842 14.9788L33.505 5.31613L35.646 11.7387C35.002 12.1896 34.5424 12.8577 34.3516 13.6203C34.1608 14.3829 34.2517 15.1887 34.6076 15.8897C34.9998 16.6633 35.6832 17.2495 36.5075 17.5195C37.3318 17.7894 38.2295 17.721 39.0034 17.3292L42.2264 15.6966V15.7243H49.5052L40.1352 23.1036C39.972 23.2326 39.8493 23.4057 39.7815 23.6023C39.7137 23.799 39.7037 24.011 39.7527 24.2132C39.4472 24.6157 39.2395 25.0836 39.1457 25.5801C39.0519 26.0766 39.0748 26.5881 39.2124 27.0742C39.35 27.5604 39.5986 28.008 39.9387 28.3817C40.2788 28.7554 40.701 29.045 41.172 29.2277C40.9628 30.0054 41.0484 30.833 41.4125 31.5513C41.7766 32.2697 42.3934 32.8281 43.1443 33.1191C43.0043 33.6388 42.9949 34.185 43.117 34.7092L43.1172 34.7093ZM42.8528 27.1572L42.8522 27.1575C42.5945 27.286 42.2964 27.3073 42.023 27.2168C41.7495 27.1262 41.5231 26.9312 41.393 26.6742C41.2629 26.4173 41.2398 26.1193 41.3287 25.8453C41.4176 25.5714 41.6113 25.3437 41.8675 25.2121L45.7577 23.2413C45.8856 23.1746 46.0255 23.1339 46.1693 23.1216C46.313 23.1093 46.4578 23.1257 46.5952 23.1698C46.7326 23.2139 46.8598 23.2848 46.9696 23.3784C47.0794 23.472 47.1695 23.5865 47.2347 23.7152C47.2999 23.8439 47.3389 23.9843 47.3494 24.1282C47.36 24.2721 47.3419 24.4166 47.2961 24.5535C47.2504 24.6903 47.178 24.8167 47.083 24.9253C46.9881 25.034 46.8725 25.1227 46.743 25.1863L42.8528 27.1572ZM43.3584 30.5676C43.2277 30.3097 43.2048 30.0104 43.2948 29.7356C43.3847 29.4609 43.5802 29.233 43.8381 29.1024L47.7285 27.1316C47.9862 27.0027 48.2844 26.981 48.558 27.0713C48.8316 27.1616 49.0584 27.3566 49.1887 27.6135C49.319 27.8705 49.3423 28.1686 49.2534 28.4427C49.1646 28.7168 48.9709 28.9446 48.7146 29.0763L48.7139 29.0766L44.8237 31.0475C44.5657 31.1778 44.2665 31.2005 43.9918 31.1106C43.7171 31.0206 43.4893 30.8253 43.3584 30.5676ZM45.3291 34.4578C45.1985 34.1998 45.1757 33.9006 45.2657 33.6259C45.3557 33.3512 45.5511 33.1234 45.809 32.9927L49.6992 31.0219C49.827 30.9572 49.9662 30.9182 50.1089 30.9073C50.2517 30.8964 50.3952 30.9138 50.5312 30.9583C50.6673 31.0029 50.7933 31.0738 50.9019 31.167C51.0106 31.2603 51.0998 31.374 51.1645 31.5017C51.2292 31.6294 51.2681 31.7686 51.279 31.9114C51.2899 32.0541 51.2726 32.1977 51.2281 32.3337C51.1835 32.4698 51.1126 32.5957 51.0194 32.7044C50.9261 32.8131 50.8124 32.9023 50.6847 32.967L46.7944 34.9377C46.5364 35.068 46.2372 35.0907 45.9625 35.0007C45.6878 34.9107 45.4601 34.7155 45.3291 34.4578Z" fill="#31B4C9"/>
<path d="M40.3606 5.15338L44.7208 0.793091L46.2624 2.33469L41.9022 6.69484L40.3606 5.15338ZM48.146 8.63725L55.7803 3.18822L57.0471 4.96313L49.4128 10.4122L48.146 8.63725ZM56.1331 12.7849L64.8537 10.6004L65.3835 12.7154L56.6629 14.9L56.1331 12.7849ZM55.0736 22.5799L55.5468 20.4518L65.3571 22.6331L64.8839 24.7612L55.0736 22.5799ZM55.3571 32.2875L56.4168 30.3817L66.2272 35.8369L65.1675 37.7426L55.3571 32.2875ZM51.2776 40.8613L52.7254 39.2324L62.5321 47.9496L61.0844 49.5784L51.2776 40.8613ZM42.326 47.0402L44.3059 46.1266L50.8465 60.3004L48.8666 61.214L42.326 47.0402ZM27.0307 60.3868L31.3885 47.2994L33.4578 47.9884L29.1 61.0758L27.0307 60.3868ZM16.5126 2.75989L17.7795 0.984973L25.4137 6.434L24.1469 8.20892L16.5126 2.75989ZM2.32365 7.11186L3.63194 5.36747L12.3539 11.9089L11.0456 13.6533L2.32365 7.11186ZM1.68054 22.5669L2.10792 20.4278L13.015 22.6069L12.5876 24.746L1.68054 22.5669ZM2.32365 36.9845L11.0456 30.443L12.3539 32.1874L3.63194 38.7289L2.32365 36.9845Z" fill="#31B4C9"/>
</svg>
