<svg width="79" height="72" viewBox="0 0 79 72" fill="none" xmlns="http://www.w3.org/2000/svg">
<path d="M61.7504 5.20231C51.1423 0.204324 37.7109 -0.782414 26.1719 1.91365C1.09397 7.27781 -1.21634 27.3522 0.39794 34.7947C0.456498 35.0714 0.597697 35.3237 0.802849 35.5184C1.008 35.7131 1.26743 35.8409 1.54681 35.8848L4.20653 36.3041L25.659 58.9181C25.2775 58.8956 24.8954 58.9512 24.5361 59.0814C24.1768 59.2116 23.8478 59.4137 23.5692 59.6753C23.2906 59.9369 23.0682 60.2525 22.9157 60.6029C22.7631 60.9534 22.6836 61.3312 22.682 61.7133V69.2047C22.6831 69.9458 22.978 70.6561 23.502 71.1801C24.0259 71.7041 24.7363 71.9989 25.4773 72H52.8516C53.5926 71.9989 54.303 71.7041 54.827 71.1801C55.3509 70.6561 55.6458 69.9458 55.6469 69.2047V61.7133C55.6453 61.3312 55.5658 60.9534 55.4132 60.6029C55.2607 60.2525 55.0384 59.9369 54.7598 59.6753C54.4811 59.4137 54.1521 59.2116 53.7928 59.0814C53.4335 58.9512 53.0514 58.8956 52.6699 58.9181L74.1238 36.3041L76.7835 35.8848C77.0628 35.8407 77.3222 35.7128 77.5273 35.5182C77.7324 35.3236 77.8736 35.0713 77.9324 34.7947C78.9094 28.765 77.8488 22.5817 74.9182 17.2224C71.9875 11.863 67.3541 7.63343 61.7504 5.20231ZM47.5993 3.89411C51.7762 4.50413 55.8549 5.66008 59.7308 7.33232V22.6855C55.7649 21.5281 51.7057 20.7186 47.5993 20.2661V3.89411ZM59.1257 25.4137L43.212 58.9167H40.5635V22.6282C46.8469 22.7251 53.0906 23.6619 59.1257 25.4137ZM33.5264 3.52793C37.2752 3.14227 41.0537 3.14227 44.8026 3.52793V20.0299C41.0501 19.7234 37.2788 19.7234 33.5264 20.0299V3.52793ZM37.7668 22.6282V58.9167H35.1183L19.2033 25.4137C20.3591 25.0699 21.6072 24.7358 22.9797 24.42C27.8336 23.3133 32.7891 22.7128 37.7668 22.6282ZM18.5995 7.33092C21.2422 6.17333 23.9894 5.27055 26.8037 4.63486C28.1032 4.33963 29.4133 4.09254 30.7311 3.89411V20.2661C26.6246 20.7189 22.5654 21.5284 18.5995 22.6855V7.33092ZM3.64188 33.3872L2.98079 33.2824C2.32573 28.3685 3.20625 23.3722 5.5017 18.9782C7.79715 14.5842 11.3952 11.0075 15.8028 8.73835V23.5883C6.59231 26.8714 4.20233 31.0168 3.64188 33.3872ZM6.31138 34.4634C6.48469 33.2754 7.74816 29.4836 16.5282 26.2942L32.0225 58.9181H29.5137L6.31138 34.4634ZM52.8516 61.7147L52.8544 69.2061H25.4773V61.7147H52.8516ZM48.8166 58.9195H46.3078L61.8021 26.2928C70.6213 29.4976 71.8582 33.3048 72.0245 34.4551L48.8166 58.9195ZM75.3495 33.2824L74.6884 33.3872C74.1294 31.0154 71.738 26.8714 62.5261 23.587V8.73696C66.9333 11.0063 70.5311 14.5828 72.8268 18.9763C75.1224 23.3699 76.0035 28.3658 75.3495 33.2796V33.2824Z" fill="white"/>
</svg>
