<svg width="68" height="68" viewBox="0 0 68 68" fill="none" xmlns="http://www.w3.org/2000/svg">
<path d="M66.1863 0.405396H1.41342C0.638963 0.405396 0.00531609 1.03904 0.00531609 1.8135V7.44592C0.00531609 8.22038 0.638963 8.85403 1.41342 8.85403H3.14539L0.202451 13.7683C-0.0650894 14.2048 -0.065089 14.7399 0.18837 15.1905C0.441829 15.627 0.906503 15.8946 1.41342 15.8946H3.14539L0.202451 20.8088C-0.0650894 21.2454 -0.065089 21.7804 0.18837 22.231C0.441829 22.6675 0.906503 22.9351 1.41342 22.9351H3.14539L0.202451 27.8494C-0.0650894 28.2859 -0.065089 28.821 0.18837 29.2716C0.441829 29.7081 0.906503 29.9756 1.41342 29.9756H4.22963V59.5458H1.41342C0.638963 59.5458 0.00531609 60.1795 0.00531609 60.9539V66.5863C0.00531609 67.3608 0.638963 67.9945 1.41342 67.9945H66.1863C66.9607 67.9945 67.5944 67.3608 67.5944 66.5863V60.9539C67.5944 60.1795 66.9607 59.5458 66.1863 59.5458H63.3701V29.9756H66.1863C66.6932 29.9756 67.1579 29.7081 67.4113 29.2575C67.6648 28.821 67.6507 28.2718 67.3972 27.8353L64.4543 22.9351H66.1863C66.6932 22.9351 67.1579 22.6675 67.4113 22.2169C67.6648 21.7804 67.6507 21.2313 67.3972 20.7948L64.4543 15.8946H66.1863C66.6932 15.8946 67.1579 15.627 67.4113 15.1764C67.6648 14.7399 67.6507 14.1907 67.3972 13.7542L64.4543 8.85403H66.1863C66.9607 8.85403 67.5944 8.22038 67.5944 7.44592V1.8135C67.5944 1.03904 66.9607 0.405396 66.1863 0.405396ZM64.7782 65.1782H2.82153V62.362H64.7782V65.1782ZM60.5538 59.5458H7.04584V29.9756H9.86205V55.3215C9.86205 56.096 10.4957 56.7296 11.2702 56.7296H56.3295C57.104 56.7296 57.7376 56.096 57.7376 55.3215V29.9756H60.5538V59.5458ZM12.6783 29.9756H54.9214V53.9134H12.6783V29.9756ZM63.6939 27.1594H3.90577L6.44036 22.9351H61.1734L63.6939 27.1594ZM63.6939 20.1189H3.90577L6.44036 15.8946H61.1734L63.6939 20.1189ZM63.6939 13.0783H3.90577L6.44036 8.85403H61.1734L63.6939 13.0783ZM64.7782 6.03782H2.82153V3.22161H64.7782V6.03782Z" fill="#31B4C9"/>
<path d="M45.4449 33.7775C45.3146 33.647 45.1599 33.5434 44.9895 33.4728C44.8192 33.4021 44.6366 33.3657 44.4522 33.3657C44.2677 33.3657 44.0851 33.4021 43.9148 33.4728C43.7444 33.5434 43.5897 33.647 43.4594 33.7775L35.4896 41.7474C35.2931 41.944 35.1594 42.1946 35.1057 42.4674C35.0519 42.7401 35.0804 43.0227 35.1875 43.2792C35.2946 43.5357 35.4756 43.7546 35.7074 43.9081C35.9392 44.0616 36.2113 44.1427 36.4893 44.1412C36.8554 44.1412 37.2075 44.0004 37.4891 43.7328L45.459 35.7629C45.994 35.2138 45.994 34.3267 45.4449 33.7775ZM46.4446 40.7476L42.4597 44.7326C42.2632 44.9292 42.1296 45.1798 42.0758 45.4526C42.022 45.7253 42.0505 46.0079 42.1576 46.2644C42.2648 46.5209 42.4457 46.7398 42.6775 46.8933C42.9093 47.0467 43.1815 47.1279 43.4594 47.1264C43.8256 47.1264 44.1776 46.9855 44.4592 46.718L48.4441 42.7331C48.9933 42.1839 48.9933 41.2968 48.4441 40.7476C47.895 40.1985 46.9938 40.1985 46.4446 40.7476Z" fill="#31B4C9"/>
</svg>
