<svg width="19" height="24" viewBox="0 0 19 24" fill="none" xmlns="http://www.w3.org/2000/svg">
<path d="M12.9891 0H3.69561C2.33792 0 1.23291 1.10578 1.23291 2.4627V11.5694H0.992376C0.444405 11.5694 0 12.0133 0 12.5618V18.5802C0 19.1286 0.444357 19.5725 0.992376 19.5725H1.23291V20.6761C1.23291 22.0345 2.33792 23.1388 3.69561 23.1388H16.3762C17.733 23.1388 18.8382 22.0344 18.8382 20.6761V5.82857L12.9891 0ZM2.60342 13.6479C2.89425 13.5987 3.30304 13.5617 3.87899 13.5617C4.46104 13.5617 4.87588 13.6728 5.15462 13.896C5.42088 14.1063 5.60056 14.4534 5.60056 14.8619C5.60056 15.2703 5.4644 15.6175 5.21667 15.8527C4.89445 16.156 4.41794 16.2922 3.86051 16.2922C3.73646 16.2922 3.62526 16.286 3.5383 16.274V17.7664H2.60342V13.6479ZM16.3762 21.6306H3.69561C3.16991 21.6306 2.74182 21.2025 2.74182 20.6761V19.5725H14.5627C15.1108 19.5725 15.5551 19.1286 15.5551 18.5802V12.5618C15.5551 12.0133 15.1108 11.5694 14.5627 11.5694H2.74182V2.4627C2.74182 1.93777 3.16996 1.50968 3.69561 1.50968L12.4249 1.50056V4.7272C12.4249 5.66966 13.1896 6.43509 14.1327 6.43509L17.2936 6.42602L17.3291 20.676C17.3291 21.2025 16.9018 21.6306 16.3762 21.6306ZM6.20338 17.7474V13.6479C6.55012 13.5927 7.00206 13.5617 7.47901 13.5617C8.27164 13.5617 8.78563 13.7039 9.18838 14.0071C9.6218 14.3294 9.89405 14.843 9.89405 15.5804C9.89405 16.3791 9.60322 16.9305 9.20043 17.2708C8.76097 17.6362 8.09201 17.8094 7.27475 17.8094C6.78533 17.8094 6.43859 17.7784 6.20338 17.7474ZM12.9619 15.3203V16.0879H11.4631V17.7664H10.5158V13.5927H13.067V14.3664H11.4631V15.3203H12.9619Z" fill="#31B4C9"/>
</svg>
