<svg width="68" height="68" viewBox="0 0 68 68" fill="none" xmlns="http://www.w3.org/2000/svg">
<mask id="mask0_2_490" style="mask-type:luminance" maskUnits="userSpaceOnUse" x="0" y="0" width="68" height="68">
<path d="M66.7498 66.7498V1.24995H1.25V66.7498H66.7498Z" fill="white" stroke="white" stroke-width="2.5"/>
</mask>
<g mask="url(#mask0_2_490)">
<path d="M34.078 53.9216C34.078 53.8789 34.0426 53.8435 33.9999 53.8435C33.9571 53.8435 33.9218 53.8789 33.9218 53.9216C33.9218 53.9644 33.9571 53.9998 33.9999 53.9998C34.0426 53.9998 34.078 53.9644 34.078 53.9216Z" fill="white" stroke="white" stroke-width="2.5"/>
<path d="M62.2889 41.9685C62.2889 45.6355 59.3152 48.6091 55.6483 48.6091C51.9814 48.6091 49.0077 45.6355 49.0077 41.9685C49.0077 38.3016 51.9814 35.3279 55.6483 35.3279C59.3152 35.3279 62.2889 38.3016 62.2889 41.9685Z" stroke="white" stroke-width="2.5" stroke-miterlimit="10" stroke-linecap="round" stroke-linejoin="round"/>
<path d="M19.3906 64.5466H1.32812V61.8904C1.32812 56.0228 6.48389 51.2654 12.3515 51.2654C15.9388 51.2654 19.5088 53.0424 21.4319 55.7651" stroke="white" stroke-width="2.5" stroke-miterlimit="10" stroke-linecap="round" stroke-linejoin="round"/>
<path d="M46.5679 55.7651C48.491 53.0424 52.061 51.2654 55.6482 51.2654C61.5159 51.2654 66.6716 56.0227 66.6716 61.8904V64.5466H48.6092" stroke="white" stroke-width="2.5" stroke-miterlimit="10" stroke-linecap="round" stroke-linejoin="round"/>
<path d="M18.9921 41.9685C18.9921 45.6355 16.0185 48.6091 12.3515 48.6091C8.6846 48.6091 5.71094 45.6355 5.71094 41.9685C5.71094 38.3016 8.6846 35.3279 12.3515 35.3279C16.0185 35.3279 18.9921 38.3016 18.9921 41.9685Z" stroke="white" stroke-width="2.5" stroke-miterlimit="10" stroke-linecap="round" stroke-linejoin="round"/>
<path d="M43.2967 36.656C43.2967 41.7905 39.1344 45.9529 33.9998 45.9529C28.8653 45.9529 24.703 41.7905 24.703 36.656C24.703 31.5215 28.8653 27.3592 33.9998 27.3592C39.1344 27.3592 43.2967 31.5215 43.2967 36.656Z" stroke="white" stroke-width="2.5" stroke-miterlimit="10" stroke-linecap="round" stroke-linejoin="round"/>
<path d="M33.9521 3.45286L31.0794 9.32714L24.6566 10.2595L29.305 14.7897L28.208 21.1873L33.9521 18.1671C36.1103 19.3013 37.6006 20.0849 39.6977 21.1873L38.5992 14.7897L43.2477 10.2595L36.8249 9.32714L33.9521 3.45286Z" stroke="white" stroke-width="2.5" stroke-miterlimit="10" stroke-linecap="round" stroke-linejoin="round"/>
<path d="M56.4824 25.844L60.5717 27.9929L59.7908 23.4401L63.099 20.2141L58.5264 19.5501L56.4824 15.4063L54.4371 19.5501L49.8644 20.2141L53.1727 23.4401L52.3918 27.9929L56.4824 25.844Z" stroke="white" stroke-width="2.5" stroke-miterlimit="10" stroke-linecap="round" stroke-linejoin="round"/>
<path d="M11.3263 25.844L15.4156 27.9929L14.6346 23.4401L17.943 20.2141L13.3703 19.5501L11.3263 15.4063L9.28097 19.5501L4.70825 20.2141L8.0166 23.4401L7.23567 27.9929L11.3263 25.844Z" stroke="white" stroke-width="2.5" stroke-miterlimit="10" stroke-linecap="round" stroke-linejoin="round"/>
<path d="M48.6093 64.5466H19.3906V63.2185C19.3906 60.4959 20.1357 57.9472 21.4319 55.7651C23.9793 51.4806 28.6543 48.6092 34 48.6092C38.0348 48.6092 41.6871 50.2441 44.3301 52.8884C45.1894 53.7477 45.9424 54.7132 46.568 55.7651C47.8642 57.9472 48.6093 60.4959 48.6093 63.2185V64.5466Z" stroke="white" stroke-width="2.5" stroke-miterlimit="10" stroke-linecap="round" stroke-linejoin="round"/>
<path d="M39.0906 55.4423C40.5117 56.376 41.6631 57.6882 42.3989 59.2341" stroke="white" stroke-width="2.5" stroke-miterlimit="10" stroke-linecap="round" stroke-linejoin="round"/>
</g>
</svg>
