<svg width="65" height="66" viewBox="0 0 65 66" fill="none" xmlns="http://www.w3.org/2000/svg">
<path d="M64.3275 50.1207L54.1337 39.9254L56.1454 38.4637C57.104 37.7699 57.8176 36.7897 58.1832 35.6643C58.5489 34.5389 58.5478 33.3264 58.1801 32.2017L56.8062 27.9739C56.6611 27.5301 56.6611 27.0516 56.8062 26.6078L58.1801 22.3798C58.5478 21.2551 58.549 20.0427 58.1833 18.9173C57.8176 17.7919 57.104 16.8117 56.1454 16.118L52.5489 13.5047C52.1705 13.2311 51.8892 12.844 51.746 12.3996L50.3722 8.17155C50.0086 7.04552 49.2968 6.06401 48.3396 5.36848C47.3823 4.67295 46.2289 4.2993 45.0456 4.3014H40.5998C40.13 4.3014 39.6808 4.15544 39.3007 3.87928L35.7042 1.26619C34.7481 0.569011 33.5953 0.193359 32.412 0.193359C31.2287 0.193359 30.076 0.569011 29.1199 1.26619L25.5232 3.87945C25.146 4.15466 24.691 4.30252 24.2241 4.30158H19.7784C18.5951 4.29944 17.4417 4.67306 16.4844 5.3686C15.5271 6.06413 14.8153 7.04566 14.4517 8.17171L13.0779 12.3999C12.9344 12.8441 12.6532 13.2312 12.275 13.5049L8.67845 16.118C7.7199 16.8118 7.00637 17.792 6.6407 18.9173C6.27504 20.0427 6.27612 21.2551 6.64378 22.3798L8.01763 26.6078C8.16275 27.0515 8.16275 27.53 8.01763 27.9737L6.64378 32.2019C6.27609 33.3266 6.275 34.539 6.64067 35.6644C7.00634 36.7897 7.71988 37.7699 8.67845 38.4637L10.6902 39.9254L0.496382 50.1206C0.297275 50.3197 0.150919 50.5654 0.0705333 50.8353C-0.00985298 51.1052 -0.0217367 51.3908 0.0359557 51.6665C0.0936482 51.9421 0.219099 52.199 0.400977 52.414C0.582854 52.629 0.815428 52.7954 1.07769 52.8979L9.26501 56.1013L12.4684 64.2887C12.571 64.5509 12.7373 64.7835 12.9524 64.9654C13.1674 65.1473 13.4243 65.2727 13.7 65.3304C13.9757 65.3881 14.2614 65.3762 14.5313 65.2958C14.8012 65.2153 15.0468 65.0689 15.2459 64.8698L27.7774 52.3399L29.1199 53.3153C30.0761 54.0122 31.2287 54.3878 32.4119 54.3881C33.5952 54.3878 34.7478 54.0121 35.704 53.3152L37.0466 52.3397L49.5783 64.8698C49.7774 65.069 50.023 65.2154 50.2929 65.2959C50.5628 65.3763 50.8485 65.3882 51.1242 65.3306C51.3998 65.2729 51.6568 65.1474 51.8718 64.9655C52.0868 64.7836 52.2531 64.551 52.3556 64.2887L55.559 56.1013L63.7464 52.8979C64.0086 52.7953 64.2411 52.629 64.4229 52.414C64.6048 52.199 64.7302 51.9421 64.7879 51.6665C64.8455 51.3909 64.8336 51.1052 64.7533 50.8354C64.6729 50.5655 64.5266 50.3199 64.3275 50.1207ZM14.6814 60.6396L12.1522 54.1753C12.067 53.9575 11.9376 53.7597 11.7722 53.5943C11.6068 53.4289 11.409 53.2995 11.1912 53.2143L4.72694 50.6851L13.115 42.2957L14.4519 46.41C14.8155 47.536 15.5272 48.5176 16.4845 49.2131C17.4418 49.9087 18.5953 50.2823 19.7786 50.2801H24.2243C24.4664 50.2801 24.7029 50.3196 24.9273 50.3949L14.6814 60.6396ZM31.1127 50.5724L27.5162 47.9591C26.5604 47.2618 25.4073 46.8872 24.2243 46.8896H19.7786C19.3116 46.8904 18.8564 46.743 18.4787 46.4685C18.1009 46.194 17.8201 45.8067 17.6766 45.3623L16.3028 41.1344C15.9513 40.0525 15.2905 39.1232 14.3924 38.4318C14.3617 38.4058 14.33 38.3808 14.2974 38.3571C14.2874 38.3496 14.2783 38.3413 14.2681 38.334L10.6716 35.7208C10.2933 35.447 10.0118 35.0602 9.86747 34.6161C9.72318 34.172 9.72361 33.6936 9.8687 33.2497L11.2426 29.0217C11.6104 27.8972 11.6104 26.6848 11.2426 25.5603L9.8687 21.3325C9.72361 20.8886 9.72318 20.4101 9.86747 19.966C10.0118 19.5218 10.2933 19.1349 10.6716 18.8611L14.2681 16.248C15.2267 15.5546 15.9394 14.5737 16.3028 13.4477L17.6766 9.21973C17.8201 8.77536 18.1009 8.38801 18.4787 8.11353C18.8565 7.83904 19.3116 7.6916 19.7786 7.69246H24.2243C25.4074 7.69487 26.5606 7.32017 27.5163 6.62274L31.1127 4.00982C31.49 3.73463 31.9449 3.58635 32.4119 3.58635C32.8789 3.58635 33.3339 3.73463 33.7112 4.00982L37.3077 6.62308C38.2635 7.32049 39.4166 7.69519 40.5998 7.6928H45.0456C45.5126 7.69201 45.9677 7.83947 46.3454 8.11395C46.7231 8.38842 47.004 8.77574 47.1474 9.22007L48.5213 13.4479C48.8845 14.574 49.5972 15.555 50.5559 16.2483L54.1526 18.8616C54.5309 19.1354 54.8124 19.5223 54.9567 19.9664C55.1009 20.4105 55.1005 20.889 54.9553 21.3328L53.5815 25.561C53.2138 26.6854 53.2138 27.8978 53.5815 29.0222L54.9553 33.2502C55.1005 33.6941 55.1009 34.1726 54.9566 34.6167C54.8123 35.0608 54.5308 35.4476 54.1525 35.7214L50.5561 38.3344C50.5436 38.3435 50.5322 38.3539 50.5197 38.363C50.491 38.3844 50.4627 38.4062 50.4351 38.4296C49.5352 39.1211 48.8732 40.0515 48.5213 41.1346L47.1474 45.3628C47.004 45.8071 46.7232 46.1945 46.3454 46.4689C45.9677 46.7434 45.5126 46.8909 45.0456 46.8901H40.5998C39.4166 46.8878 38.2635 47.2624 37.3077 47.9598L33.7114 50.5727C33.3339 50.8477 32.879 50.9958 32.412 50.9957C31.945 50.9957 31.4901 50.8475 31.1127 50.5724ZM53.6329 53.2143C53.4151 53.2995 53.2172 53.4289 53.0518 53.5943C52.8864 53.7597 52.7571 53.9575 52.6718 54.1753L50.1426 60.6396L39.8966 50.395C40.1231 50.3189 40.3606 50.2801 40.5996 50.2803H45.0455C46.2287 50.2824 47.3821 49.9088 48.3394 49.2133C49.2966 48.5178 50.0084 47.5363 50.372 46.4103L51.7089 42.2957L60.0973 50.6853L53.6329 53.2143Z" fill="white"/>
<path d="M40.2522 39.8648C40.4991 39.8648 40.743 39.8109 40.9669 39.7068C41.1908 39.6028 41.3893 39.4511 41.5484 39.2623C41.7076 39.0736 41.8236 38.8524 41.8884 38.6141C41.9532 38.3759 41.9651 38.1264 41.9234 37.883L40.5767 30.031L46.2815 24.4702C46.508 24.2494 46.6682 23.9696 46.744 23.6625C46.8198 23.3554 46.8082 23.0332 46.7105 22.7323C46.6127 22.4315 46.4327 22.164 46.1909 21.9601C45.9491 21.7562 45.655 21.624 45.3419 21.5786L37.4579 20.4329L33.9322 13.2888C33.7922 13.0052 33.5756 12.7664 33.307 12.5994C33.0383 12.4325 32.7283 12.344 32.412 12.344C32.0957 12.344 31.7857 12.4325 31.517 12.5994C31.2484 12.7664 31.0318 13.0052 30.8918 13.2888L27.3661 20.4329L19.4822 21.5786C19.1692 21.6241 18.8752 21.7563 18.6334 21.9602C18.3916 22.1641 18.2117 22.4316 18.1139 22.7324C18.0162 23.0332 18.0045 23.3554 18.0803 23.6625C18.1561 23.9696 18.3163 24.2494 18.5427 24.4702L24.2475 30.031L22.9008 37.883C22.8474 38.1948 22.8822 38.5152 23.0014 38.8082C23.1206 39.1012 23.3194 39.355 23.5753 39.5409C23.8311 39.7268 24.1339 39.8374 24.4494 39.8603C24.7649 39.8831 25.0804 39.8173 25.3604 39.6702L32.4119 35.9629L39.4636 39.67C39.7068 39.7979 39.9774 39.8648 40.2522 39.8648ZM33.2007 32.5471C32.9575 32.4193 32.6867 32.3525 32.4119 32.3525C32.1371 32.3525 31.8664 32.4193 31.6231 32.5471L26.8231 35.0707L27.7399 29.7257C27.7864 29.4548 27.7663 29.1766 27.6814 28.9152C27.5964 28.6538 27.4492 28.4169 27.2524 28.225L23.3692 24.4398L28.7357 23.6598C29.0077 23.6203 29.266 23.5153 29.4884 23.3537C29.7107 23.1922 29.8905 22.979 30.0121 22.7325L32.4119 17.8698L34.8117 22.7327C34.9334 22.9791 35.1131 23.1923 35.3355 23.3539C35.5578 23.5154 35.8161 23.6205 36.0881 23.66L41.4548 24.44L37.5715 28.2252C37.3747 28.4171 37.2275 28.654 37.1425 28.9154C37.0576 29.1768 37.0375 29.4549 37.0839 29.7259L38.0007 35.0709L33.2007 32.5471Z" fill="white"/>
</svg>
