<svg width="56" height="65" viewBox="0 0 56 65" fill="none" xmlns="http://www.w3.org/2000/svg">
<path d="M27.5565 0.488037L0 10.5094V32.7842C0 57.9525 26.7413 64.8003 27.0099 64.8692L27.5565 65.0001L28.103 64.8692C28.3717 64.8003 55.113 57.9525 55.113 32.7842V10.5094L27.5565 0.488037ZM50.5202 32.7842C50.5202 52.7145 31.2077 59.2086 27.5657 60.2558C24.0522 59.2155 4.59275 52.5422 4.59275 32.7842V13.7243L27.5565 5.37472L50.5202 13.7243V32.7842Z" fill="white"/>
<path d="M15.4017 31.1606L12.1547 34.4077L22.9637 45.2167L42.9582 25.2222L39.7111 21.9751L22.9637 38.7226L15.4017 31.1606Z" fill="white"/>
</svg>
