<svg width="57" height="64" viewBox="0 0 57 64" fill="none" xmlns="http://www.w3.org/2000/svg">
<path d="M54.8138 39.625C55.7063 38.6287 56.25 37.3137 56.25 35.875C56.25 32.7738 53.7262 30.25 50.625 30.25H39.7075C40.7887 26.9688 41.25 22.615 41.25 20.7488V18.875C41.25 14.74 37.885 11.375 33.75 11.375H31.875C31.015 11.375 30.265 11.96 30.0563 12.795L29.035 16.8813C27.6038 22.6038 23.06 28.9175 18.3575 30.065C17.5338 27.98 15.5 26.5 13.125 26.5H1.875C0.84 26.5 0 27.34 0 28.375V62.125C0 63.16 0.84 64 1.875 64H13.125C15.3612 64 17.2962 62.6888 18.2025 60.7938L24.645 62.9412C26.7513 63.6437 28.9462 64 31.1675 64H46.875C49.9762 64 52.5 61.4762 52.5 58.375C52.5 57.6437 52.36 56.9438 52.105 56.3025C54.49 55.6513 56.25 53.465 56.25 50.875C56.25 49.4362 55.7063 48.1213 54.8138 47.125C55.7063 46.1287 56.25 44.8138 56.25 43.375C56.25 41.9363 55.7063 40.6213 54.8138 39.625ZM15 58.375C15 59.4087 14.1588 60.25 13.125 60.25H3.75V30.25H13.125C14.1588 30.25 15 31.0912 15 32.125V58.375ZM46.875 41.5H50.625C51.6587 41.5 52.5 42.3412 52.5 43.375C52.5 44.4087 51.6587 45.25 50.625 45.25H46.875C45.84 45.25 45 46.09 45 47.125C45 48.16 45.84 49 46.875 49H50.625C51.6587 49 52.5 49.8413 52.5 50.875C52.5 51.9087 51.6587 52.75 50.625 52.75H46.875C45.84 52.75 45 53.59 45 54.625C45 55.66 45.84 56.5 46.875 56.5C47.9087 56.5 48.75 57.3413 48.75 58.375C48.75 59.4087 47.9087 60.25 46.875 60.25H31.1675C29.35 60.25 27.5537 59.9588 25.83 59.3838L18.75 57.0238V33.8225C21.6912 33.2637 24.57 31.4013 27.1688 28.3525C29.7063 25.375 31.7638 21.4275 32.6725 17.7913L33.3387 15.125H33.75C35.8175 15.125 37.5 16.8075 37.5 18.875V20.7488C37.5 23.2663 36.7125 28.095 35.705 30.25H31.875C30.84 30.25 30 31.09 30 32.125C30 33.16 30.84 34 31.875 34H50.625C51.6587 34 52.5 34.8412 52.5 35.875C52.5 36.9088 51.6587 37.75 50.625 37.75H46.875C45.84 37.75 45 38.59 45 39.625C45 40.66 45.84 41.5 46.875 41.5Z" fill="white"/>
<path d="M9.375 56.5C10.4105 56.5 11.25 55.6605 11.25 54.625C11.25 53.5895 10.4105 52.75 9.375 52.75C8.33947 52.75 7.5 53.5895 7.5 54.625C7.5 55.6605 8.33947 56.5 9.375 56.5Z" fill="white"/>
<path d="M35.625 0C34.5895 0 33.75 0.8395 33.75 1.875V5.75C33.75 6.7855 34.5895 7.625 35.625 7.625C36.6605 7.625 37.5 6.7855 37.5 5.75V1.875C37.5 0.8395 36.6605 0 35.625 0ZM27.67 8.2685L25.0184 5.61688C24.2863 4.88463 23.099 4.88463 22.3668 5.61688C21.6345 6.34912 21.6345 7.53625 22.3668 8.2685L25.0184 10.9201C25.7505 11.6523 26.9379 11.6524 27.67 10.9201C28.4023 10.1879 28.4023 9.00075 27.67 8.2685ZM48.8833 5.61688C48.1511 4.88463 46.9639 4.88463 46.2316 5.61688L43.58 8.26838C42.8478 9.00063 42.8478 10.1877 43.58 10.92C44.3121 11.6523 45.4994 11.6524 46.2316 10.9201L48.8833 8.2685C49.6155 7.53625 49.6155 6.34912 48.8833 5.61688Z" fill="white"/>
</svg>
